<svg width="20" height="15" viewBox="0 0 20 15" fill="none" xmlns="http://www.w3.org/2000/svg">
<g clip-path="url(#clip0_270_61011)">
<rect width="20" height="15" fill="white"/>
<path fill-rule="evenodd" clip-rule="evenodd" d="M0 0V15.36H20.48V0H0Z" fill="#F7FCFF"/>
<mask id="mask0_270_61011" style="mask-type:luminance" maskUnits="userSpaceOnUse" x="0" y="0" width="21" height="16">
<path fill-rule="evenodd" clip-rule="evenodd" d="M0 0V15.36H20.48V0H0Z" fill="white"/>
</mask>
<g mask="url(#mask0_270_61011)">
<path fill-rule="evenodd" clip-rule="evenodd" d="M0 0V5.12H20.48V0H0Z" fill="#009D00"/>
<path fill-rule="evenodd" clip-rule="evenodd" d="M0 5.12V10.24H20.48V5.12H0Z" fill="white"/>
<path fill-rule="evenodd" clip-rule="evenodd" d="M0 10.24V15.36H20.48V10.24H0Z" fill="#F80000"/>
</g>
<path fill-rule="evenodd" clip-rule="evenodd" d="M0 0V15.36L5.12 7.77725L0 0Z" fill="#0075D5"/>
<mask id="mask1_270_61011" style="mask-type:luminance" maskUnits="userSpaceOnUse" x="0" y="0" width="6" height="16">
<path fill-rule="evenodd" clip-rule="evenodd" d="M0 0V15.36L5.12 7.77725L0 0Z" fill="white"/>
</mask>
<g mask="url(#mask1_270_61011)">
</g>
<path d="M9.32262 5.96046L9.32892 5.95204L9.33955 5.95388L9.51 5.97428L9.42249 5.82546L9.41671 5.81684L9.42138 5.80697L9.49246 5.65111L9.32552 5.68928L9.31577 5.69172L9.3076 5.68448L9.18023 5.56745L9.16575 5.73847L9.16485 5.74935L9.15554 5.75393L9.0044 5.8388L9.16316 5.90662L9.17328 5.91034L9.17547 5.92104L9.20817 6.08954L9.32262 5.96046Z" fill="#FFD500" stroke="black" stroke-width="0.04"/>
<path d="M9.96262 5.96046L9.96892 5.95204L9.97955 5.95388L10.15 5.97428L10.0625 5.82546L10.0567 5.81684L10.0614 5.80697L10.1325 5.65111L9.96552 5.68928L9.95577 5.69172L9.9476 5.68448L9.82023 5.56745L9.80575 5.73847L9.80485 5.74935L9.79554 5.75393L9.6444 5.8388L9.80315 5.90662L9.81328 5.91034L9.81547 5.92104L9.84817 6.08954L9.96262 5.96046Z" fill="#FFD500" stroke="black" stroke-width="0.04"/>
<path d="M10.6026 5.96046L10.6089 5.95204L10.6195 5.95388L10.79 5.97428L10.7025 5.82546L10.6967 5.81684L10.7014 5.80697L10.7725 5.65111L10.6055 5.68928L10.5958 5.69172L10.5876 5.68448L10.4602 5.56745L10.4457 5.73847L10.4449 5.74935L10.4355 5.75393L10.2844 5.8388L10.4432 5.90662L10.4533 5.91034L10.4555 5.92104L10.4882 6.08954L10.6026 5.96046Z" fill="#FFD500" stroke="black" stroke-width="0.04"/>
<path d="M11.2426 5.96046L11.2489 5.95204L11.2595 5.95388L11.43 5.97428L11.3425 5.82546L11.3367 5.81684L11.3414 5.80697L11.4125 5.65111L11.2455 5.68928L11.2358 5.69172L11.2276 5.68448L11.1002 5.56745L11.0857 5.73847L11.0849 5.74935L11.0755 5.75393L10.9244 5.8388L11.0832 5.90662L11.0933 5.91034L11.0955 5.92104L11.1282 6.08954L11.2426 5.96046Z" fill="#FFD500" stroke="black" stroke-width="0.04"/>
<path d="M11.8826 5.96046L11.8889 5.95204L11.8995 5.95388L12.07 5.97428L11.9825 5.82546L11.9767 5.81684L11.9814 5.80697L12.0525 5.65111L11.8855 5.68928L11.8758 5.69172L11.8676 5.68448L11.7402 5.56745L11.7257 5.73847L11.7249 5.74935L11.7155 5.75393L11.5644 5.8388L11.7232 5.90662L11.7333 5.91034L11.7355 5.92104L11.7682 6.08954L11.8826 5.96046Z" fill="#FFD500" stroke="black" stroke-width="0.04"/>
<path d="M12.5226 5.96046L12.5289 5.95204L12.5395 5.95388L12.71 5.97428L12.6225 5.82546L12.6167 5.81684L12.6214 5.80697L12.6925 5.65111L12.5255 5.68928L12.5158 5.69172L12.5076 5.68448L12.3802 5.56745L12.3657 5.73847L12.3649 5.74935L12.3555 5.75393L12.2044 5.8388L12.3632 5.90662L12.3733 5.91034L12.3755 5.92104L12.4082 6.08954L12.5226 5.96046Z" fill="#FFD500" stroke="black" stroke-width="0.04"/>
<path d="M12.1195 6.44003V8.31992C12.1195 9.00466 11.565 9.56 10.8803 9.56015C10.1954 9.56015 9.64004 9.00475 9.64004 8.31992V6.44003H12.1195Z" stroke="#373737" stroke-width="0.08"/>
<path fill-rule="evenodd" clip-rule="evenodd" d="M10.7049 7.65428C10.7049 7.65428 10.5758 9.16806 10.4469 9.2598C10.318 9.35154 11.0645 9.39735 11.1358 9.32858C11.2071 9.2598 10.8103 8.02626 10.9468 7.65428C11.0833 7.2823 11.3032 7.25216 11.3032 7.25216C11.3032 7.25216 11.026 7.19357 10.9468 7.30519C10.8676 7.41681 10.6314 7.25216 10.6314 7.25216L10.7049 7.65428Z" fill="#6F3E1D"/>
<path fill-rule="evenodd" clip-rule="evenodd" d="M10.6767 7.56875H10.5773C10.5773 7.56875 10.5101 7.83162 10.3558 7.70018C10.2016 7.56875 9.984 7.61508 9.984 7.61508C9.984 7.61508 10.0035 7.45777 10.2403 7.39524C10.4771 7.3327 10.5773 6.82491 10.5773 6.82491C10.5773 6.82491 10.9125 6.70016 11.1163 6.9558C11.3202 7.21143 11.6074 7.10237 11.6074 7.10237C11.6074 7.10237 11.8173 7.22173 11.7124 7.39524C11.6074 7.56875 11.4284 7.69568 11.2724 7.56875C11.1163 7.44182 10.6767 7.56875 10.6767 7.56875Z" fill="#009D29"/>
</g>
<defs>
<clipPath id="clip0_270_61011">
<rect width="20" height="15" fill="white"/>
</clipPath>
</defs>
</svg>
