<svg width="20" height="15" viewBox="0 0 20 15" fill="none" xmlns="http://www.w3.org/2000/svg">
<g clip-path="url(#clip0_270_61007)">
<rect width="20" height="15" fill="white"/>
<path fill-rule="evenodd" clip-rule="evenodd" d="M0 0H20V15H0V0Z" fill="#C51918"/>
<path fill-rule="evenodd" clip-rule="evenodd" d="M2 2H18V13H2V2Z" fill="#4564F9"/>
<path d="M17.375 2.625V12.375H2.625V2.625H17.375Z" stroke="#CBDAFF" stroke-opacity="0.12" stroke-width="1.25"/>
<mask id="mask0_270_61007" style="mask-type:luminance" maskUnits="userSpaceOnUse" x="2" y="2" width="16" height="11">
<path fill-rule="evenodd" clip-rule="evenodd" d="M2 2H18V13H2V2Z" fill="white"/>
<path d="M17.375 2.625V12.375H2.625V2.625H17.375Z" stroke="white" stroke-width="1.25"/>
</mask>
<g mask="url(#mask0_270_61007)">
<path opacity="0.4" d="M10.6562 2.1895L10.25 3.00005C10.6234 2.25498 10.6536 2.19516 10.6562 2.19048H10.6572L10.6631 2.19341C10.666 2.19489 10.6695 2.19704 10.6738 2.19926C10.6829 2.20392 10.6951 2.20995 10.71 2.21782C10.7399 2.23368 10.7818 2.25646 10.833 2.2852C10.9353 2.34255 11.0775 2.42532 11.2461 2.53325C11.5821 2.74841 12.0337 3.06882 12.4883 3.48637C13.3741 4.30005 14.4061 5.61007 14.4062 7.34087C14.4062 9.05585 13.3896 10.4402 12.5205 11.3233C12.0725 11.7785 11.6279 12.1378 11.2959 12.3829C11.1291 12.5059 10.9884 12.6017 10.8877 12.668C10.8374 12.7011 10.7968 12.7269 10.7676 12.7452C10.753 12.7543 10.7412 12.7623 10.7324 12.7676C10.7282 12.7702 10.7244 12.7718 10.7217 12.7735C10.7203 12.7743 10.7188 12.7758 10.7178 12.7764H10.7168L10.7158 12.7774L10.2412 13.0616L9.77148 12.7696H9.77051V12.7686L9.76855 12.7676C9.7677 12.7671 9.76675 12.7664 9.76562 12.7657C9.76288 12.7639 9.75916 12.7615 9.75488 12.7588C9.74628 12.7534 9.7342 12.7458 9.71973 12.7364C9.69082 12.7176 9.65048 12.6912 9.60059 12.6573C9.50059 12.5892 9.36119 12.4909 9.19531 12.3653C8.86481 12.1149 8.42166 11.7496 7.97559 11.2911C7.11442 10.4059 6.09375 9.02086 6.09375 7.34087C6.09391 5.64434 7.13101 4.33419 8.00781 3.5186C8.46019 3.09781 8.90886 2.7714 9.24316 2.55083C9.41109 2.44003 9.55271 2.35414 9.6543 2.29497C9.70481 2.26554 9.74584 2.24292 9.77539 2.22661C9.79017 2.21845 9.8026 2.21188 9.81152 2.20708C9.8158 2.20478 9.81941 2.20274 9.82227 2.20122L9.82812 2.19829L9.8291 2.19731L10.2402 1.98149L10.6562 2.1895Z" fill="#CCE0E5" stroke="#6D87FB" stroke-width="1.8125"/>
<path d="M10.25 11.1988L9.74707 11.9527L10.2402 12.2818L10.7402 11.9615L10.25 11.1988ZM10.25 11.1988L10.7402 11.9605H10.7412L10.7422 11.9595C10.743 11.959 10.744 11.9583 10.7451 11.9576C10.7476 11.9559 10.7512 11.9541 10.7549 11.9517C10.7622 11.9469 10.7715 11.9401 10.7832 11.9322C10.8069 11.9162 10.8399 11.894 10.8799 11.8658C10.9601 11.8091 11.0716 11.7277 11.2031 11.6236C11.4648 11.4164 11.8152 11.1135 12.168 10.729C12.8525 9.98294 13.6562 8.80918 13.6562 7.35503C13.6562 5.88588 12.8381 4.77057 12.1357 4.07866C11.7762 3.72453 11.4194 3.45375 11.1533 3.27104C11.0195 3.17915 10.9063 3.10752 10.8242 3.05815C10.7834 3.03363 10.7501 3.01445 10.7256 3.00053C10.7134 2.99365 10.703 2.98819 10.6953 2.98393C10.6915 2.98185 10.6882 2.97951 10.6855 2.97807C10.6842 2.97734 10.6827 2.97668 10.6816 2.97612L10.6807 2.97514H10.6797H10.6787L10.2402 2.73882L9.80566 2.98296L9.80469 2.98393L9.80273 2.98491C9.80184 2.98542 9.80093 2.98622 9.7998 2.98686C9.79724 2.98832 9.79377 2.98959 9.79004 2.99174C9.78252 2.99608 9.77276 3.00221 9.76074 3.00932C9.73649 3.02367 9.70282 3.04346 9.66211 3.06889C9.58085 3.11967 9.46873 3.1927 9.33594 3.28667C9.07167 3.47369 8.71771 3.75045 8.36035 4.10698C7.66661 4.79913 6.84375 5.91362 6.84375 7.35503C6.84384 8.78085 7.65201 9.95421 8.3291 10.7007C8.67994 11.0875 9.02799 11.3957 9.28809 11.607C9.41881 11.7132 9.52884 11.797 9.6084 11.855C9.64816 11.884 9.68067 11.9071 9.7041 11.9234C9.71571 11.9315 9.72528 11.9381 9.73242 11.9429C9.73589 11.9453 9.73886 11.9472 9.74121 11.9488C9.74242 11.9496 9.74422 11.9501 9.74512 11.9507L9.74609 11.9517L10.25 11.1988Z" fill="#CCE0E5"/>
<path d="M10.25 11.1988L9.74707 11.9527L10.2402 12.2818L10.7402 11.9615L10.25 11.1988ZM10.25 11.1988L10.7402 11.9605H10.7412L10.7422 11.9595C10.743 11.959 10.744 11.9583 10.7451 11.9576C10.7476 11.9559 10.7512 11.9541 10.7549 11.9517C10.7622 11.9469 10.7715 11.9401 10.7832 11.9322C10.8069 11.9162 10.8399 11.894 10.8799 11.8658C10.9601 11.8091 11.0716 11.7277 11.2031 11.6236C11.4648 11.4164 11.8152 11.1135 12.168 10.729C12.8525 9.98294 13.6562 8.80918 13.6562 7.35503C13.6562 5.88588 12.8381 4.77057 12.1357 4.07866C11.7762 3.72453 11.4194 3.45375 11.1533 3.27104C11.0195 3.17915 10.9063 3.10752 10.8242 3.05815C10.7834 3.03363 10.7501 3.01445 10.7256 3.00053C10.7134 2.99365 10.703 2.98819 10.6953 2.98393C10.6915 2.98185 10.6882 2.97951 10.6855 2.97807C10.6842 2.97734 10.6827 2.97668 10.6816 2.97612L10.6807 2.97514H10.6797H10.6787L10.2402 2.73882L9.80566 2.98296L9.80469 2.98393L9.80273 2.98491C9.80184 2.98542 9.80093 2.98622 9.7998 2.98686C9.79724 2.98832 9.79377 2.98959 9.79004 2.99174C9.78252 2.99608 9.77276 3.00221 9.76074 3.00932C9.73649 3.02367 9.70282 3.04346 9.66211 3.06889C9.58085 3.11967 9.46873 3.1927 9.33594 3.28667C9.07167 3.47369 8.71771 3.75045 8.36035 4.10698C7.66661 4.79913 6.84375 5.91362 6.84375 7.35503C6.84384 8.78085 7.65201 9.95421 8.3291 10.7007C8.67994 11.0875 9.02799 11.3957 9.28809 11.607C9.41881 11.7132 9.52884 11.797 9.6084 11.855C9.64816 11.884 9.68067 11.9071 9.7041 11.9234C9.71571 11.9315 9.72528 11.9381 9.73242 11.9429C9.73589 11.9453 9.73886 11.9472 9.74121 11.9488C9.74242 11.9496 9.74422 11.9501 9.74512 11.9507L9.74609 11.9517L10.25 11.1988Z" stroke="#C1C9F1" stroke-opacity="0.748217" stroke-width="1.8125"/>
<path d="M10.25 11.1988L9.74707 11.9527L10.2402 12.2818L10.7402 11.9615L10.25 11.1988ZM10.25 11.1988L10.7402 11.9605H10.7412L10.7422 11.9595C10.743 11.959 10.744 11.9583 10.7451 11.9576C10.7476 11.9559 10.7512 11.9541 10.7549 11.9517C10.7622 11.9469 10.7715 11.9401 10.7832 11.9322C10.8069 11.9162 10.8399 11.894 10.8799 11.8658C10.9601 11.8091 11.0716 11.7277 11.2031 11.6236C11.4648 11.4164 11.8152 11.1135 12.168 10.729C12.8525 9.98294 13.6562 8.80918 13.6562 7.35503C13.6562 5.88588 12.8381 4.77057 12.1357 4.07866C11.7762 3.72453 11.4194 3.45375 11.1533 3.27104C11.0195 3.17915 10.9063 3.10752 10.8242 3.05815C10.7834 3.03363 10.7501 3.01445 10.7256 3.00053C10.7134 2.99365 10.703 2.98819 10.6953 2.98393C10.6915 2.98185 10.6882 2.97951 10.6855 2.97807C10.6842 2.97734 10.6827 2.97668 10.6816 2.97612L10.6807 2.97514H10.6797H10.6787L10.2402 2.73882L9.80566 2.98296L9.80469 2.98393L9.80273 2.98491C9.80184 2.98542 9.80093 2.98622 9.7998 2.98686C9.79724 2.98832 9.79377 2.98959 9.79004 2.99174C9.78252 2.99608 9.77276 3.00221 9.76074 3.00932C9.73649 3.02367 9.70282 3.04346 9.66211 3.06889C9.58085 3.11967 9.46873 3.1927 9.33594 3.28667C9.07167 3.47369 8.71771 3.75045 8.36035 4.10698C7.66661 4.79913 6.84375 5.91362 6.84375 7.35503C6.84384 8.78085 7.65201 9.95421 8.3291 10.7007C8.67994 11.0875 9.02799 11.3957 9.28809 11.607C9.41881 11.7132 9.52884 11.797 9.6084 11.855C9.64816 11.884 9.68067 11.9071 9.7041 11.9234C9.71571 11.9315 9.72528 11.9381 9.73242 11.9429C9.73589 11.9453 9.73886 11.9472 9.74121 11.9488C9.74242 11.9496 9.74422 11.9501 9.74512 11.9507L9.74609 11.9517L10.25 11.1988Z" stroke="#C51918" stroke-width="1.8125"/>
<mask id="mask1_270_61007" style="mask-type:luminance" maskUnits="userSpaceOnUse" x="7" y="3" width="6" height="9">
<path d="M10.2578 4.85698C10.4385 4.98888 10.6524 5.16198 10.8643 5.37065C11.4117 5.91009 11.8438 6.58635 11.8438 7.35503C11.8437 8.13864 11.3974 8.88727 10.832 9.50346C10.6329 9.7205 10.4322 9.90601 10.2578 10.0542C10.0803 9.90035 9.87444 9.70834 9.6709 9.48393C9.09811 8.85242 8.65635 8.10402 8.65625 7.35503C8.65625 6.62156 9.08359 5.94509 9.63965 5.39018C9.85581 5.17452 10.0742 4.99428 10.2578 4.85698Z" fill="white"/>
<path d="M10.2578 4.85698C10.4385 4.98888 10.6524 5.16198 10.8643 5.37065C11.4117 5.91009 11.8438 6.58635 11.8438 7.35503C11.8437 8.13864 11.3974 8.88727 10.832 9.50346C10.6329 9.7205 10.4322 9.90601 10.2578 10.0542C10.0803 9.90035 9.87444 9.70834 9.6709 9.48393C9.09811 8.85242 8.65635 8.10402 8.65625 7.35503C8.65625 6.62156 9.08359 5.94509 9.63965 5.39018C9.85581 5.17452 10.0742 4.99428 10.2578 4.85698Z" stroke="white" stroke-width="1.8125"/>
</mask>
<g mask="url(#mask1_270_61007)">
<rect x="8.08334" y="8.75" width="4.66667" height="0.9375" fill="#91CBCB"/>
<path fill-rule="evenodd" clip-rule="evenodd" d="M8.50107 9.49871C8.50107 9.49871 11.8098 9.49989 12.114 9.38571C12.4181 9.27153 11.543 11.5779 10.425 11.5779C9.30699 11.5779 8.50107 9.49871 8.50107 9.49871Z" fill="#FDF9A1"/>
<path d="M11.621 9.22195L11.0266 9.67933C10.0898 8.46191 9.69684 7.2025 9.86456 5.91716L10.6083 6.0142C10.4678 7.09078 10.7997 8.15468 11.621 9.22195Z" fill="#A68861"/>
<path fill-rule="evenodd" clip-rule="evenodd" d="M10.246 6.02296L9.67895 6.68742C9.65767 6.71236 9.61725 6.69188 9.62476 6.65998L9.81982 5.8315H8.93274C8.8989 5.8315 8.8892 5.78522 8.92019 5.77163L9.6782 5.43932L9.14018 4.73001C9.12113 4.70489 9.14705 4.67056 9.17643 4.68201L10.0225 5.01182L10.2156 4.23467C10.2235 4.20304 10.2685 4.20306 10.2763 4.23471L10.4684 5.01182L11.3071 4.68527C11.3371 4.67359 11.363 4.70942 11.3426 4.73426L10.7616 5.43932L11.5633 5.77138C11.5948 5.78446 11.5855 5.8315 11.5513 5.8315H10.7616L10.8817 6.67909C10.8861 6.71007 10.8473 6.72756 10.827 6.70377L10.246 6.02296Z" fill="#239E46"/>
<path fill-rule="evenodd" clip-rule="evenodd" d="M9.75 8.125H12.75V8.78125H9.75V8.125Z" fill="#239E46"/>
<path fill-rule="evenodd" clip-rule="evenodd" d="M9.29501 7.74538H9.29201C9.28335 7.77754 9.26218 7.80428 9.22851 7.82561C9.19485 7.84694 9.15135 7.8576 9.09801 7.8576C9.05535 7.8576 9.01618 7.84989 8.98051 7.83447C8.94485 7.81905 8.91435 7.7964 8.88901 7.76655C8.86368 7.73669 8.84385 7.69961 8.82951 7.65531C8.81518 7.61101 8.80801 7.55999 8.80801 7.50224C8.80801 7.44515 8.81501 7.39445 8.82901 7.35015C8.84301 7.30586 8.86301 7.26878 8.88901 7.23892C8.91501 7.20906 8.94635 7.18626 8.98301 7.17051C9.01968 7.15476 9.06035 7.14688 9.10501 7.14688C9.16768 7.14688 9.22001 7.16066 9.26201 7.18822C9.30401 7.21579 9.33635 7.25221 9.35901 7.29749L9.29001 7.33883C9.27401 7.30208 9.25018 7.27321 9.21851 7.25221C9.18685 7.23121 9.14901 7.22071 9.10501 7.22071C9.07435 7.22071 9.04635 7.22612 9.02101 7.23695C8.99568 7.24778 8.97385 7.26304 8.95551 7.28272C8.93718 7.30241 8.92301 7.32604 8.91301 7.3536C8.90301 7.38116 8.89801 7.41201 8.89801 7.44613V7.55737C8.89801 7.59149 8.90301 7.6225 8.91301 7.65039C8.92301 7.67828 8.93718 7.70207 8.95551 7.72176C8.97385 7.74144 8.99635 7.7567 9.02301 7.76753C9.04968 7.77836 9.07968 7.78377 9.11301 7.78377C9.13701 7.78377 9.15985 7.78065 9.18151 7.77442C9.20318 7.76819 9.22218 7.75883 9.23851 7.74637C9.25485 7.7339 9.26768 7.71831 9.27701 7.69961C9.28635 7.6809 9.29101 7.65876 9.29101 7.63316V7.56524H9.13701V7.4924H9.37301V7.84579H9.29501V7.74538ZM9.81701 7.15869V7.58394C9.81701 7.64957 9.82935 7.69928 9.85401 7.73308C9.87868 7.76687 9.92201 7.78377 9.98401 7.78377C10.046 7.78377 10.0893 7.76687 10.114 7.73308C10.1387 7.69928 10.151 7.64957 10.151 7.58394V7.15869H10.235V7.56426C10.235 7.61413 10.2305 7.65744 10.2215 7.69419C10.2125 7.73094 10.198 7.76146 10.178 7.78574C10.158 7.81002 10.1318 7.82807 10.0995 7.83988C10.0672 7.85169 10.0277 7.8576 9.98101 7.8576C9.93435 7.8576 9.89518 7.85169 9.86351 7.83988C9.83185 7.82807 9.80635 7.81002 9.78701 7.78574C9.76768 7.76146 9.75385 7.73094 9.74551 7.69419C9.73718 7.65744 9.73301 7.61413 9.73301 7.56426V7.15869H9.81701ZM11.04 7.84579L10.97 7.64301H10.688L10.618 7.84579H10.533L10.777 7.15869H10.884L11.128 7.84579H11.04ZM10.831 7.23547H10.826L10.708 7.57016H10.949L10.831 7.23547ZM11.988 7.26697H11.983L11.924 7.38215L11.757 7.6814L11.59 7.38215L11.531 7.26697H11.526V7.84579H11.444V7.15869H11.556L11.756 7.52882H11.761L11.962 7.15869H12.07V7.84579H11.988V7.26697Z" fill="#C51918"/>
</g>
</g>
</g>
<defs>
<clipPath id="clip0_270_61007">
<rect width="20" height="15" fill="white"/>
</clipPath>
</defs>
</svg>
