<svg width="20" height="15" viewBox="0 0 20 15" fill="none" xmlns="http://www.w3.org/2000/svg">
<g clip-path="url(#clip0_270_60953)">
<rect width="20" height="15" fill="white"/>
<path fill-rule="evenodd" clip-rule="evenodd" d="M0 0V15H20V0H0Z" fill="#F7FCFF"/>
<mask id="mask0_270_60953" style="mask-type:luminance" maskUnits="userSpaceOnUse" x="0" y="0" width="20" height="15">
<path fill-rule="evenodd" clip-rule="evenodd" d="M0 0V15H20V0H0Z" fill="white"/>
</mask>
<g mask="url(#mask0_270_60953)">
<path fill-rule="evenodd" clip-rule="evenodd" d="M0 0V5H20V0H0Z" fill="#E31D1C"/>
<path fill-rule="evenodd" clip-rule="evenodd" d="M0 10V15H20V10H0Z" fill="#3D58DB"/>
<rect x="6.29785" y="3.99834" width="7.125" height="2.5" fill="#E31D1C"/>
<path d="M12.9879 5.5999C12.9986 6.08048 13.0016 6.91881 13.0016 7.72588C13.0015 8.24705 13 8.74889 12.9986 9.12041C12.9979 9.30595 12.9982 9.45903 12.9977 9.56572C12.9974 9.61907 12.9968 9.66136 12.9967 9.68974C12.9966 9.69433 12.9967 9.69856 12.9967 9.70244C12.9963 9.70449 12.9961 9.70679 12.9957 9.70927C12.9929 9.72591 12.9882 9.75207 12.981 9.78642C12.9667 9.8552 12.9424 9.95609 12.9039 10.0784C12.8265 10.3241 12.6939 10.6502 12.4723 10.9739C12.0382 11.6076 11.2497 12.2591 9.78085 12.2591C8.3146 12.259 7.56485 11.6091 7.16562 10.9817C6.96065 10.6595 6.84343 10.3338 6.77792 10.0882C6.74544 9.96634 6.72553 9.86584 6.71445 9.79716C6.70896 9.76309 6.70569 9.73664 6.7037 9.72002C6.70323 9.716 6.70304 9.71215 6.70273 9.70927C6.70264 9.70228 6.70189 9.69254 6.70175 9.68095C6.70141 9.65279 6.70141 9.61153 6.70078 9.55888C6.69949 9.45287 6.69711 9.30017 6.69492 9.11552C6.69052 8.74625 6.68515 8.24709 6.67929 7.72783C6.67034 6.93425 6.66251 6.09583 6.65878 5.5999H12.9879Z" fill="#F7FCFF" stroke="#E31D1C" stroke-width="0.703125"/>
<mask id="mask1_270_60953" style="mask-type:luminance" maskUnits="userSpaceOnUse" x="6" y="5" width="8" height="8">
<path d="M12.9879 5.5999C12.9986 6.08048 13.0016 6.91881 13.0016 7.72588C13.0015 8.24705 13 8.74889 12.9986 9.12041C12.9979 9.30595 12.9982 9.45903 12.9977 9.56572C12.9974 9.61907 12.9968 9.66136 12.9967 9.68974C12.9966 9.69433 12.9967 9.69856 12.9967 9.70244C12.9963 9.70449 12.9961 9.70679 12.9957 9.70927C12.9929 9.72591 12.9882 9.75207 12.981 9.78642C12.9667 9.8552 12.9424 9.95609 12.9039 10.0784C12.8265 10.3241 12.6939 10.6502 12.4723 10.9739C12.0382 11.6076 11.2497 12.2591 9.78085 12.2591C8.3146 12.259 7.56485 11.6091 7.16562 10.9817C6.96065 10.6595 6.84343 10.3338 6.77792 10.0882C6.74544 9.96634 6.72553 9.86584 6.71445 9.79716C6.70896 9.76309 6.70569 9.73664 6.7037 9.72002C6.70323 9.716 6.70304 9.71215 6.70273 9.70927C6.70264 9.70228 6.70189 9.69254 6.70175 9.68095C6.70141 9.65279 6.70141 9.61153 6.70078 9.55888C6.69949 9.45287 6.69711 9.30017 6.69492 9.11552C6.69052 8.74625 6.68515 8.24709 6.67929 7.72783C6.67034 6.93425 6.66251 6.09583 6.65878 5.5999H12.9879Z" fill="white" stroke="white" stroke-width="0.703125"/>
</mask>
<g mask="url(#mask1_270_60953)">
<path fill-rule="evenodd" clip-rule="evenodd" d="M6.56152 5.64995H7.87988V6.98864H6.56152V5.64995ZM9.19824 6.98864H7.87988V8.32732H6.56152V9.66601L7.87988 9.66601V11.0047H6.56152V12.3434H7.87988V11.0047H9.19824V12.3434H10.5166V11.0047H11.835V12.3434H13.1533V11.0047H11.835V9.66601L13.1533 9.66601V8.32732H11.835V6.98864H13.1533V5.64995H11.835V6.98864H10.5166V5.64995H9.19824V6.98864ZM9.19824 8.32732V6.98864H10.5166V8.32732H9.19824ZM9.19824 9.66601V8.32732H7.87988V9.66601H9.19824ZM10.5166 9.66601V11.0047H9.19824V9.66601H10.5166ZM10.5166 9.66601V8.32732H11.835V9.66601H10.5166Z" fill="#F50100"/>
</g>
<path fill-rule="evenodd" clip-rule="evenodd" d="M6.53316 5.10165C6.53316 5.10165 6.94093 4.88384 7.28873 4.77159C7.63653 4.65935 7.91143 4.59802 7.91143 4.59802L7.39397 2.69046L6.35752 2.30322L5.77051 3.27079L6.53316 5.10165Z" fill="#56C6F5" stroke="white" stroke-width="0.5"/>
<path d="M6.36317 4.05675L6.48226 3.99934C6.60525 4.26241 6.76737 4.34367 6.98958 4.26074C7.21656 4.17603 7.3091 4.01585 7.27645 3.7619L7.40717 3.74457C7.44771 4.0598 7.32059 4.27983 7.03506 4.38639C6.74476 4.49473 6.51381 4.37897 6.36317 4.05675Z" fill="white"/>
<path fill-rule="evenodd" clip-rule="evenodd" d="M6.64521 3.46366L6.53135 3.53264C6.50616 3.5479 6.47483 3.52596 6.48056 3.49707L6.50643 3.36648L6.38976 3.30236C6.36395 3.28818 6.36728 3.25008 6.39517 3.24059L6.52119 3.1977L6.51839 3.06461C6.51777 3.03516 6.55243 3.019 6.57459 3.0384L6.67475 3.1261L6.78861 3.05712C6.8138 3.04186 6.84513 3.0638 6.83941 3.09269L6.81354 3.22328L6.9302 3.2874C6.95601 3.30159 6.95268 3.33968 6.92479 3.34917L6.79877 3.39206L6.80157 3.52515C6.80219 3.5546 6.76753 3.57077 6.74537 3.55136L6.64521 3.46366Z" fill="#FECA00"/>
<path fill-rule="evenodd" clip-rule="evenodd" d="M9.08799 4.42238C9.08799 4.42238 9.43574 4.39134 9.80114 4.39844C10.1665 4.40554 10.4757 4.40814 10.4757 4.40814L10.6541 2.52721L9.87142 1.82009L9.00138 2.54383L9.08799 4.42238Z" fill="#56C6F5" stroke="white" stroke-width="0.5"/>
<path fill-rule="evenodd" clip-rule="evenodd" d="M9.84389 4.11551C10.1454 4.11551 10.1742 3.78991 10.1742 3.56811C10.0971 3.44509 10.1127 3.35706 9.86558 3.35706C9.6185 3.35706 9.59029 3.43172 9.5182 3.56811C9.5182 3.78991 9.54242 4.11551 9.84389 4.11551Z" fill="#FECA00"/>
<path fill-rule="evenodd" clip-rule="evenodd" d="M10.1831 3.19555C10.4846 3.19555 10.5135 2.86994 10.5135 2.64814C10.4364 2.52512 10.4519 2.43709 10.2048 2.43709C9.95772 2.43709 9.92951 2.51175 9.85742 2.64814C9.85742 2.86994 9.88165 3.19555 10.1831 3.19555Z" fill="#FECA00"/>
<path fill-rule="evenodd" clip-rule="evenodd" d="M9.52393 3.19555C9.8254 3.19555 9.85427 2.86994 9.85427 2.64814C9.77719 2.52512 9.79272 2.43709 9.54563 2.43709C9.29854 2.43709 9.27034 2.51175 9.19824 2.64814C9.19824 2.86994 9.22247 3.19555 9.52393 3.19555Z" fill="#FECA00"/>
<path d="M8.26009 1.70959L9.11165 2.31506L9.20638 2.38147L9.21614 2.4967L9.37337 4.32483L9.39583 4.58557L9.13509 4.59631H9.12044C9.11074 4.59676 9.09637 4.59833 9.07845 4.59924C9.04266 4.60107 8.99243 4.60325 8.93489 4.60706C8.81804 4.61479 8.67612 4.62661 8.5638 4.64221C8.45974 4.65667 8.31122 4.69327 8.18098 4.72913C8.11789 4.7465 8.06199 4.76296 8.0218 4.77502C8.00171 4.78106 7.98488 4.7863 7.97395 4.78967L7.9593 4.79456H7.95833L7.71516 4.8717L7.6429 4.62659L7.10091 2.78674L7.05989 2.64709L7.16145 2.5426L7.93489 1.73987L8.0843 1.58557L8.26009 1.70959Z" fill="#2E42A5" stroke="white" stroke-width="0.5"/>
<mask id="mask2_270_60953" style="mask-type:luminance" maskUnits="userSpaceOnUse" x="6" y="1" width="4" height="5">
<path d="M8.26009 1.70959L9.11165 2.31506L9.20638 2.38147L9.21614 2.4967L9.37337 4.32483L9.39583 4.58557L9.13509 4.59631H9.12044C9.11074 4.59676 9.09637 4.59833 9.07845 4.59924C9.04266 4.60107 8.99243 4.60325 8.93489 4.60706C8.81804 4.61479 8.67612 4.62661 8.5638 4.64221C8.45974 4.65667 8.31122 4.69327 8.18098 4.72913C8.11789 4.7465 8.06199 4.76296 8.0218 4.77502C8.00171 4.78106 7.98488 4.7863 7.97395 4.78967L7.9593 4.79456H7.95833L7.71516 4.8717L7.6429 4.62659L7.10091 2.78674L7.05989 2.64709L7.16145 2.5426L7.93489 1.73987L8.0843 1.58557L8.26009 1.70959Z" fill="white" stroke="white" stroke-width="0.5"/>
</mask>
<g mask="url(#mask2_270_60953)">
<path d="M7.77277 4.14864L7.61621 3.77984C7.95247 3.63266 8.52049 3.54235 9.11822 3.50703L9.14119 3.90796C8.58552 3.94079 8.0599 4.02297 7.77277 4.14864Z" fill="#C51918"/>
<path d="M7.50855 3.25654L7.35199 2.88774C7.68824 2.74056 8.411 2.6214 9.00873 2.58609L9.0317 2.98702C8.47603 3.01985 7.79568 3.13086 7.50855 3.25654Z" fill="#C51918"/>
</g>
<path d="M11.3694 1.70959L10.5178 2.31506L10.4241 2.38147L10.4133 2.4967L10.2561 4.32483L10.2336 4.58557L10.4954 4.59631H10.509C10.5187 4.59675 10.5332 4.59833 10.551 4.59924C10.5869 4.60108 10.6378 4.60323 10.6956 4.60706C10.8124 4.61479 10.9544 4.62661 11.0667 4.64221C11.1707 4.65672 11.3185 4.69333 11.4485 4.72913C11.5118 4.74657 11.5684 4.76294 11.6086 4.77502C11.6286 4.78101 11.6446 4.78631 11.6555 4.78967C11.6609 4.79133 11.6655 4.79273 11.6682 4.79358L11.6711 4.79456L11.9202 4.87268L11.9885 4.62073L12.4856 2.77795L12.5217 2.64612L12.429 2.54456L11.6995 1.74475L11.55 1.58167L11.3694 1.70959Z" fill="#2E42A5" stroke="white" stroke-width="0.5"/>
<mask id="mask3_270_60953" style="mask-type:luminance" maskUnits="userSpaceOnUse" x="9" y="1" width="4" height="5">
<path d="M11.3694 1.70959L10.5178 2.31506L10.4241 2.38147L10.4133 2.4967L10.2561 4.32483L10.2336 4.58557L10.4954 4.59631H10.509C10.5187 4.59675 10.5332 4.59833 10.551 4.59924C10.5869 4.60108 10.6378 4.60323 10.6956 4.60706C10.8124 4.61479 10.9544 4.62661 11.0667 4.64221C11.1707 4.65672 11.3185 4.69333 11.4485 4.72913C11.5118 4.74657 11.5684 4.76294 11.6086 4.77502C11.6286 4.78101 11.6446 4.78631 11.6555 4.78967C11.6609 4.79133 11.6655 4.79273 11.6682 4.79358L11.6711 4.79456L11.9202 4.87268L11.9885 4.62073L12.4856 2.77795L12.5217 2.64612L12.429 2.54456L11.6995 1.74475L11.55 1.58167L11.3694 1.70959Z" fill="white" stroke="white" stroke-width="0.5"/>
</mask>
<g mask="url(#mask3_270_60953)">
<path fill-rule="evenodd" clip-rule="evenodd" d="M11.4986 4.04155C11.4986 4.04155 11.6824 3.93928 11.7088 3.76686C11.7353 3.59443 12.0195 3.38206 11.8774 3.40733C11.7353 3.43261 11.8166 3.45235 11.6108 3.40733C11.4051 3.36231 11.1387 3.33254 11.1387 3.20604C11.1387 3.07955 11.2711 2.97916 11.1629 2.97916C11.0547 2.97916 10.8238 2.85944 10.8702 2.95094C10.9166 3.04245 10.7635 2.93898 10.84 3.12896C10.9166 3.31894 10.8238 3.51032 10.8702 3.56068C10.9166 3.61104 10.84 3.85804 10.84 3.85804C10.84 3.85804 10.8681 3.94978 10.9173 3.81237C10.9665 3.67497 11.074 3.57865 11.0203 3.69551C10.9665 3.81237 10.8978 4.09033 10.9591 4.04155C11.0203 3.99277 11.0811 3.85789 11.0811 3.81237C11.0811 3.76686 11.2355 3.58819 11.2355 3.72312C11.2355 3.85804 11.0903 3.96429 11.1629 3.96429C11.2355 3.96429 11.2763 3.99296 11.3219 3.85804C11.3676 3.72312 11.4785 3.63386 11.524 3.72312C11.5695 3.81237 11.5595 3.8076 11.4986 3.92458C11.4378 4.04155 11.4986 4.04155 11.4986 4.04155Z" fill="#FECA00"/>
<path fill-rule="evenodd" clip-rule="evenodd" d="M11.067 3.04157L10.9986 2.92713C11.1214 2.85149 11.2341 2.83134 11.333 2.87351C11.378 2.89268 11.412 2.91452 11.5003 2.97668L11.5119 2.98479C11.6039 3.04933 11.6526 3.07561 11.6826 3.07561V3.20948C11.6139 3.20948 11.5546 3.17744 11.4369 3.09494L11.4252 3.08672C11.3457 3.03078 11.315 3.011 11.282 2.99695C11.2273 2.97363 11.1568 2.98622 11.067 3.04157ZM10.8506 3.91466C10.8894 3.91466 10.9209 3.88357 10.9209 3.84521C10.9209 3.80686 10.8894 3.77577 10.8506 3.77577C10.8118 3.77577 10.7803 3.80686 10.7803 3.84521C10.7803 3.88357 10.8118 3.91466 10.8506 3.91466ZM11.0527 3.97908C11.0527 4.01744 11.0213 4.04853 10.9824 4.04853C10.9436 4.04853 10.9121 4.01744 10.9121 3.97908C10.9121 3.94073 10.9436 3.90964 10.9824 3.90964C11.0213 3.90964 11.0527 3.94073 11.0527 3.97908ZM11.2192 4.04336C11.2581 4.04336 11.2896 4.01227 11.2896 3.97392C11.2896 3.93557 11.2581 3.90448 11.2192 3.90448C11.1804 3.90448 11.1489 3.93557 11.1489 3.97392C11.1489 4.01227 11.1804 4.04336 11.2192 4.04336ZM11.5098 4.08506C11.5098 4.12341 11.4784 4.1545 11.4395 4.1545C11.4007 4.1545 11.3692 4.12341 11.3692 4.08506C11.3692 4.0467 11.4007 4.01561 11.4395 4.01561C11.4784 4.01561 11.5098 4.0467 11.5098 4.08506Z" fill="#C51918"/>
</g>
<path d="M13.3011 2.06885L12.2649 2.45654L12.1468 2.50049L12.1116 2.62256L11.5833 4.48193L11.511 4.73682L11.7689 4.79443H11.7718C11.7735 4.79483 11.7761 4.79558 11.7796 4.79639C11.7871 4.79813 11.7989 4.8016 11.8138 4.80518C11.8435 4.81233 11.8875 4.82322 11.9417 4.8374C12.0504 4.86586 12.2014 4.90718 12.3694 4.96143C12.5284 5.01272 12.7061 5.09092 12.848 5.15771C12.918 5.19069 12.9779 5.21945 13.0198 5.24072C13.0406 5.25126 13.0566 5.26034 13.0677 5.26611C13.0732 5.269 13.0777 5.27151 13.0804 5.27295C13.0816 5.27357 13.0827 5.2736 13.0833 5.27393L13.3235 5.40186L13.431 5.15381L14.2054 3.37061L14.2571 3.25146L14.1898 3.14111L13.6028 2.17334L13.4954 1.99658L13.3011 2.06885Z" fill="#56C6F5" stroke="white" stroke-width="0.5"/>
<mask id="mask4_270_60953" style="mask-type:luminance" maskUnits="userSpaceOnUse" x="11" y="1" width="4" height="5">
<path d="M13.3011 2.06885L12.2649 2.45654L12.1468 2.50049L12.1116 2.62256L11.5833 4.48193L11.511 4.73682L11.7689 4.79443H11.7718C11.7735 4.79483 11.7761 4.79558 11.7796 4.79639C11.7871 4.79813 11.7989 4.8016 11.8138 4.80518C11.8435 4.81233 11.8875 4.82322 11.9417 4.8374C12.0504 4.86586 12.2014 4.90718 12.3694 4.96143C12.5284 5.01272 12.7061 5.09092 12.848 5.15771C12.918 5.19069 12.9779 5.21945 13.0198 5.24072C13.0406 5.25126 13.0566 5.26034 13.0677 5.26611C13.0732 5.269 13.0777 5.27151 13.0804 5.27295C13.0816 5.27357 13.0827 5.2736 13.0833 5.27393L13.3235 5.40186L13.431 5.15381L14.2054 3.37061L14.2571 3.25146L14.1898 3.14111L13.6028 2.17334L13.4954 1.99658L13.3011 2.06885Z" fill="white" stroke="white" stroke-width="0.5"/>
</mask>
<g mask="url(#mask4_270_60953)">
<path fill-rule="evenodd" clip-rule="evenodd" d="M13.2046 3.18071L13.1159 3.27996C13.0963 3.30192 13.0599 3.2901 13.057 3.26079L13.0435 3.12835L12.9132 3.10114C12.8844 3.09512 12.8764 3.05771 12.9003 3.04049L13.0083 2.96263L12.9667 2.83617C12.9575 2.80818 12.9859 2.7826 13.0128 2.79467L13.1342 2.84926L13.2229 2.75001C13.2425 2.72805 13.2789 2.73986 13.2819 2.76917L13.2953 2.90161L13.4256 2.92882C13.4545 2.93484 13.4624 2.97225 13.4385 2.98948L13.3306 3.06734L13.3722 3.1938C13.3814 3.22178 13.3529 3.24737 13.3261 3.23529L13.2046 3.18071Z" fill="#FECA00"/>
<path d="M11.872 4.05477L12.0047 3.53654C12.5927 3.69186 13.2056 3.89091 13.6553 4.08339L13.4504 4.57682C13.0256 4.39498 12.4366 4.20391 11.872 4.05477Z" fill="#E31D1C"/>
<path d="M12.052 3.57624L12.0833 3.4462C12.6469 3.58608 13.2461 3.80929 13.6815 4.01718L13.6254 4.13832C13.1983 3.93442 12.6075 3.7141 12.052 3.57624Z" fill="white"/>
<path d="M11.8849 4.11033L11.9162 3.98029C12.4799 4.12017 13.0009 4.30998 13.4363 4.51787L13.3802 4.63901C12.9532 4.43512 12.4404 4.24819 11.8849 4.11033Z" fill="white"/>
<path d="M12.1393 3.85938L12.26 3.80487C12.3108 3.92382 12.3736 3.95002 12.4785 3.89904C12.7264 3.77863 13.3411 3.9469 13.3411 4.17379C13.3411 4.26231 13.2898 4.31598 13.2115 4.31287C13.1673 4.31111 13.1201 4.29365 13.0508 4.25942C13.0424 4.25527 13.0369 4.25249 13.0233 4.24557C12.9468 4.20653 12.941 4.20368 12.9206 4.19634L12.9642 4.06843C12.9924 4.0786 12.9969 4.08078 13.0819 4.12414C13.095 4.13081 13.1001 4.13339 13.108 4.13727C13.161 4.1635 13.1965 4.17663 13.2166 4.17743C13.2184 4.1775 13.2093 4.18707 13.2093 4.17379C13.2093 4.07396 12.7089 3.93701 12.5349 4.02159C12.3613 4.10593 12.2193 4.04668 12.1393 3.85938Z" fill="#272727"/>
</g>
</g>
</g>
<defs>
<clipPath id="clip0_270_60953">
<rect width="20" height="15" fill="white"/>
</clipPath>
</defs>
</svg>
