<svg width="20" height="15" viewBox="0 0 20 15" fill="none" xmlns="http://www.w3.org/2000/svg">
<g clip-path="url(#clip0_270_60870)">
<rect width="20" height="15" fill="white"/>
<path fill-rule="evenodd" clip-rule="evenodd" d="M0 0H20V15H0V0Z" fill="#2E42A5"/>
<g clip-path="url(#clip1_270_60870)">
<rect width="11" height="9" fill="#2E42A5"/>
<path d="M-1.25267 8.12489L1.22292 9.21064L11.3062 1.18047L12.612 -0.432991L9.9647 -0.79588L5.85198 2.66455L2.54167 4.99607L-1.25267 8.12489Z" fill="#F7FCFF"/>
<path d="M-0.913757 8.88559L0.347444 9.51567L12.1431 -0.582901H10.3722L-0.913757 8.88559Z" fill="#F50100"/>
<path d="M12.5027 8.12489L10.3056 9.52059L-0.0561714 1.18046L-1.36199 -0.432992L1.2853 -0.795882L5.39802 2.66455L8.70833 4.99607L12.5027 8.12489Z" fill="#F7FCFF"/>
<path d="M12.4182 8.67084L11.157 9.30092L6.13429 4.9772L4.64517 4.49412L-1.48764 -0.427466H0.283231L6.4126 4.3773L8.04069 4.95656L12.4182 8.67084Z" fill="#F50100"/>
<path fill-rule="evenodd" clip-rule="evenodd" d="M6 0H5V4H0V5H5V9H6V5H11V4H6V0Z" fill="#F50100"/>
<path fill-rule="evenodd" clip-rule="evenodd" d="M4.0625 0H6.9375V3.0625L11 3V5.875L6.9375 5.9375V9H4.0625V5.9375L0 5.875V3L4.0625 3.0625V0ZM5 4H0V5H5V9H6V5H11V4H6V0H5V4Z" fill="#F7FCFF"/>
</g>
<g clip-path="url(#clip2_270_60870)">
<path d="M18.1224 6.99527V9.27164C18.1224 10.7368 17.5783 11.7058 17.0257 12.3088C16.7491 12.6105 16.4704 12.8215 16.2552 12.9562C16.1477 13.0235 16.0562 13.0714 15.9895 13.1027C15.9561 13.1184 15.9289 13.1297 15.9095 13.1369C15.8997 13.1405 15.8921 13.1432 15.887 13.1447C15.8808 13.1464 15.8816 13.1457 15.886 13.1457C15.891 13.1457 15.8924 13.1467 15.8851 13.1447C15.8796 13.1432 15.8719 13.1405 15.8616 13.1369C15.8411 13.1296 15.8123 13.1184 15.7767 13.1027C15.7055 13.0713 15.6079 13.0226 15.4925 12.9552C15.2614 12.8203 14.9604 12.6097 14.6624 12.3078C14.067 11.7045 13.4808 10.7356 13.4808 9.27164V6.99527H18.1224Z" fill="white"/>
<path d="M18.1224 6.99527V9.27164C18.1224 10.7368 17.5783 11.7058 17.0257 12.3088C16.7491 12.6105 16.4704 12.8215 16.2552 12.9562C16.1477 13.0235 16.0562 13.0714 15.9895 13.1027C15.9561 13.1184 15.9289 13.1297 15.9095 13.1369C15.8997 13.1405 15.8921 13.1432 15.887 13.1447C15.8808 13.1464 15.8816 13.1457 15.886 13.1457C15.891 13.1457 15.8924 13.1467 15.8851 13.1447C15.8796 13.1432 15.8719 13.1405 15.8616 13.1369C15.8411 13.1296 15.8123 13.1184 15.7767 13.1027C15.7055 13.0713 15.6079 13.0226 15.4925 12.9552C15.2614 12.8203 14.9604 12.6097 14.6624 12.3078C14.067 11.7045 13.4808 10.7356 13.4808 9.27164V6.99527H18.1224Z" stroke="#0B50A0" stroke-width="0.1"/>
<path d="M18.1224 6.99527V9.27164C18.1224 10.7368 17.5783 11.7058 17.0257 12.3088C16.7491 12.6105 16.4704 12.8215 16.2552 12.9562C16.1477 13.0235 16.0562 13.0714 15.9895 13.1027C15.9561 13.1184 15.9289 13.1297 15.9095 13.1369C15.8997 13.1405 15.8921 13.1432 15.887 13.1447C15.8808 13.1464 15.8816 13.1457 15.886 13.1457C15.891 13.1457 15.8924 13.1467 15.8851 13.1447C15.8796 13.1432 15.8719 13.1405 15.8616 13.1369C15.8411 13.1296 15.8123 13.1184 15.7767 13.1027C15.7055 13.0713 15.6079 13.0226 15.4925 12.9552C15.2614 12.8203 14.9604 12.6097 14.6624 12.3078C14.067 11.7045 13.4808 10.7356 13.4808 9.27164V6.99527H18.1224Z" stroke="#F7FCFF" stroke-width="0.1"/>
<mask id="mask0_270_60870" style="mask-type:luminance" maskUnits="userSpaceOnUse" x="13" y="6" width="6" height="8">
<path d="M18.1224 6.99527V9.27164C18.1224 10.7368 17.5783 11.7058 17.0257 12.3088C16.7491 12.6105 16.4704 12.8215 16.2552 12.9562C16.1477 13.0235 16.0562 13.0714 15.9895 13.1027C15.9561 13.1184 15.9289 13.1297 15.9095 13.1369C15.8997 13.1405 15.8921 13.1432 15.887 13.1447C15.8808 13.1464 15.8816 13.1457 15.886 13.1457C15.891 13.1457 15.8924 13.1467 15.8851 13.1447C15.8796 13.1432 15.8719 13.1405 15.8616 13.1369C15.8411 13.1296 15.8123 13.1184 15.7767 13.1027C15.7055 13.0713 15.6079 13.0226 15.4925 12.9552C15.2614 12.8203 14.9604 12.6097 14.6624 12.3078C14.067 11.7045 13.4808 10.7356 13.4808 9.27164V6.99527H18.1224Z" fill="white"/>
<path d="M18.1224 6.99527V9.27164C18.1224 10.7368 17.5783 11.7058 17.0257 12.3088C16.7491 12.6105 16.4704 12.8215 16.2552 12.9562C16.1477 13.0235 16.0562 13.0714 15.9895 13.1027C15.9561 13.1184 15.9289 13.1297 15.9095 13.1369C15.8997 13.1405 15.8921 13.1432 15.887 13.1447C15.8808 13.1464 15.8816 13.1457 15.886 13.1457C15.891 13.1457 15.8924 13.1467 15.8851 13.1447C15.8796 13.1432 15.8719 13.1405 15.8616 13.1369C15.8411 13.1296 15.8123 13.1184 15.7767 13.1027C15.7055 13.0713 15.6079 13.0226 15.4925 12.9552C15.2614 12.8203 14.9604 12.6097 14.6624 12.3078C14.067 11.7045 13.4808 10.7356 13.4808 9.27164V6.99527H18.1224Z" stroke="white" stroke-width="0.1"/>
</mask>
<g mask="url(#mask0_270_60870)">
<rect x="13.1264" y="6.63297" width="5.4" height="2.125" fill="#F50100"/>
<path d="M15.5336 9.19547C15.7064 9.19547 16.052 8.99956 16.1384 8.95435C16.4552 8.75844 16.6856 8.93928 16.8728 9.0297C17.0744 9.12012 17.4488 9.22561 17.6792 9.0297C17.9096 8.83379 18.0392 8.84886 18.1976 8.84886C18.2264 8.6228 18.2264 8.39675 18.2264 8.14056V7.95972C18.0248 7.91451 17.924 7.97479 17.708 8.1707C17.492 8.36661 17.2472 8.3214 16.9304 8.20084C16.628 8.06521 16.3256 7.82409 16.0232 8.20084C15.9368 8.30633 15.7352 8.45703 15.5336 8.45703C15.3176 8.45703 15.1304 8.30633 15.044 8.20084C14.7272 7.82409 14.4392 8.06521 14.1368 8.20084C13.82 8.3214 13.5608 8.36661 13.3448 8.1707C13.1432 7.97479 13.0424 7.91451 12.8264 7.95972V8.14056C12.8264 8.39675 12.8408 8.6228 12.8696 8.84886C13.028 8.84886 13.1432 8.83379 13.3736 9.0297C13.604 9.22561 13.9928 9.12012 14.18 9.0297C14.3816 8.93928 14.612 8.75844 14.9288 8.95435C15.0152 8.99956 15.3464 9.19547 15.5336 9.19547H15.5336Z" fill="#F50100"/>
<path fill-rule="evenodd" clip-rule="evenodd" d="M14.0767 7.60101C14.0767 7.60101 14.2068 7.60729 14.3609 7.77302C14.515 7.93874 15.0822 7.83326 15.0822 7.7333C15.0822 7.63333 14.738 7.5736 14.8702 7.40267C15.0025 7.23173 15.2264 7.23142 15.4064 7.32047C15.4581 7.32047 15.4523 7.9052 15.5702 7.8731C15.9433 7.77145 16.5451 7.57003 16.7216 7.65644C16.9539 7.77014 17.1316 7.74187 17.0726 7.57872C17.0135 7.41558 16.8618 7.31362 16.5696 7.40267C16.2774 7.49171 16.3464 7.57872 16.0939 7.57872C15.8413 7.57872 15.408 7.72103 15.6005 7.40267C15.7729 7.11738 15.9786 7.1118 16.0571 7.23173C16.0972 7.29308 15.7696 7.42858 15.7696 7.49171C15.7696 7.57872 16.6135 7.3206 16.7216 7.3206C16.8298 7.3206 17.1274 7.31362 17.1569 7.40267C17.1864 7.49171 17.3662 7.57343 17.2292 7.65644C17.0922 7.73946 16.8663 7.79146 17.0217 7.89782C17.1771 8.00418 17.571 8.05255 17.5882 8.16318C17.6054 8.27382 17.7748 8.43903 17.7069 8.43903C17.6389 8.43903 17.516 8.59484 17.4016 8.5474C17.2872 8.49995 17.2737 8.4583 17.3834 8.41986C17.4931 8.38143 17.4921 8.21981 17.4016 8.21981C17.3111 8.21981 17.3188 8.20757 17.1128 8.15094C16.9068 8.09431 16.6341 8.03136 16.6505 8.15094C16.6669 8.27052 16.8064 8.52716 16.5589 8.55163C16.3114 8.57609 16.1956 8.6743 16.1474 8.59521C16.0992 8.51612 15.927 8.41073 16.0624 8.37694C16.1978 8.34314 16.3272 8.49181 16.376 8.46753C16.4247 8.44326 16.5299 8.35665 16.4373 8.25379C16.3447 8.15094 16.1649 8.14746 16.3064 8.07047C16.4479 7.99348 16.3634 7.93484 16.0939 8.09431C15.8243 8.25379 15.6743 8.38932 15.4376 8.37016C15.2009 8.351 15.0947 8.43869 15.0187 8.41284C14.9426 8.38699 14.5721 8.69848 14.4654 8.61942C14.3587 8.54037 14.0143 8.51004 14.0763 8.41284C14.1383 8.31564 14.2215 8.26559 14.3143 8.31564C14.407 8.36568 14.4991 8.41573 14.5616 8.36568C14.6242 8.31564 14.8223 8.08207 14.7768 8.04774C14.7314 8.0134 14.5714 7.95461 14.3143 7.95461C14.0571 7.95461 14.0512 7.77663 13.9901 7.69547C13.9291 7.61431 14.0767 7.60101 14.0767 7.60101Z" fill="#FFD100"/>
<path d="M15.5336 10.6955C15.7064 10.6955 16.052 10.4996 16.1384 10.4543C16.4552 10.2584 16.6856 10.4393 16.8728 10.5297C17.0744 10.6201 17.4488 10.7256 17.6792 10.5297C17.9096 10.3338 18.0392 10.3489 18.1976 10.3489C18.2264 10.1228 18.2264 9.89675 18.2264 9.64056V9.45972C18.0248 9.41451 17.924 9.47479 17.708 9.6707C17.492 9.86661 17.2472 9.8214 16.9304 9.70084C16.628 9.56521 16.3256 9.32409 16.0232 9.70084C15.9368 9.80633 15.7352 9.95703 15.5336 9.95703C15.3176 9.95703 15.1304 9.80633 15.044 9.70084C14.7272 9.32409 14.4392 9.56521 14.1368 9.70084C13.82 9.8214 13.5608 9.86661 13.3448 9.6707C13.1432 9.47479 13.0424 9.41451 12.8264 9.45972V9.64056C12.8264 9.89675 12.8408 10.1228 12.8696 10.3489C13.028 10.3489 13.1432 10.3338 13.3736 10.5297C13.604 10.7256 13.9928 10.6201 14.18 10.5297C14.3816 10.4393 14.612 10.2584 14.9288 10.4543C15.0152 10.4996 15.3464 10.6955 15.5336 10.6955H15.5336Z" fill="#0B50A0"/>
<path d="M15.5336 12.133C15.7064 12.133 16.052 11.9371 16.1384 11.8918C16.4552 11.6959 16.6856 11.8768 16.8728 11.9672C17.0744 12.0576 17.4488 12.1631 17.6792 11.9672C17.9096 11.7713 18.0392 11.7864 18.1976 11.7864C18.2264 11.5603 18.2264 11.3343 18.2264 11.0781V10.8972C18.0248 10.852 17.924 10.9123 17.708 11.1082C17.492 11.3041 17.2472 11.2589 16.9304 11.1383C16.628 11.0027 16.3256 10.7616 16.0232 11.1383C15.9368 11.2438 15.7352 11.3945 15.5336 11.3945C15.3176 11.3945 15.1304 11.2438 15.044 11.1383C14.7272 10.7616 14.4392 11.0027 14.1368 11.1383C13.82 11.2589 13.5608 11.3041 13.3448 11.1082C13.1432 10.9123 13.0424 10.852 12.8264 10.8972V11.0781C12.8264 11.3343 12.8408 11.5603 12.8696 11.7864C13.028 11.7864 13.1432 11.7713 13.3736 11.9672C13.604 12.1631 13.9928 12.0576 14.18 11.9672C14.3816 11.8768 14.612 11.6959 14.9288 11.8918C15.0152 11.9371 15.3464 12.133 15.5336 12.133H15.5336Z" fill="#0B50A0"/>
<path d="M15.5336 13.5705C15.7064 13.5705 16.052 13.3746 16.1384 13.3293C16.4552 13.1334 16.6856 13.3143 16.8728 13.4047C17.0744 13.4951 17.4488 13.6006 17.6792 13.4047C17.9096 13.2088 18.0392 13.2239 18.1976 13.2239C18.2264 12.9978 18.2264 12.7718 18.2264 12.5156V12.3347C18.0248 12.2895 17.924 12.3498 17.708 12.5457C17.492 12.7416 17.2472 12.6964 16.9304 12.5758C16.628 12.4402 16.3256 12.1991 16.0232 12.5758C15.9368 12.6813 15.7352 12.832 15.5336 12.832C15.3176 12.832 15.1304 12.6813 15.044 12.5758C14.7272 12.1991 14.4392 12.4402 14.1368 12.5758C13.82 12.6964 13.5608 12.7416 13.3448 12.5457C13.1432 12.3498 13.0424 12.2895 12.8264 12.3347V12.5156C12.8264 12.7718 12.8408 12.9978 12.8696 13.2239C13.028 13.2239 13.1432 13.2088 13.3736 13.4047C13.604 13.6006 13.9928 13.4951 14.18 13.4047C14.3816 13.3143 14.612 13.1334 14.9288 13.3293C15.0152 13.3746 15.3464 13.5705 15.5336 13.5705H15.5336Z" fill="#0B50A0"/>
<path d="M15.9843 11.1638L15.9969 11.1941H16.3104L16.079 11.4382L16.0585 11.4607L16.0673 11.489L16.1776 11.8181L15.871 11.656L15.8466 11.6433L15.8221 11.657L15.5516 11.8172L15.6307 11.4841L15.6376 11.4558L15.6161 11.4363L15.3544 11.1941H15.7264L15.7382 11.1609L15.8505 10.8543L15.9843 11.1638Z" fill="#059334" stroke="#FFD100" stroke-width="0.1"/>
<path d="M14.7843 9.91383L14.797 9.9441H15.1104L14.879 10.1882L14.8585 10.2107L14.8673 10.239L14.9776 10.5681L14.671 10.406L14.6466 10.3933L14.6221 10.407L14.3516 10.5672L14.4307 10.2341L14.4376 10.2058L14.4161 10.1863L14.1544 9.9441H14.5264L14.5382 9.9109L14.6505 9.60426L14.7843 9.91383Z" fill="#059334" stroke="#FFD100" stroke-width="0.1"/>
<path d="M17.1842 9.91383L17.1969 9.9441H17.5104L17.279 10.1882L17.2585 10.2107L17.2673 10.239L17.3776 10.5681L17.071 10.406L17.0466 10.3933L17.0221 10.407L16.7516 10.5672L16.8307 10.2341L16.8376 10.2058L16.8161 10.1863L16.5544 9.9441H16.9264L16.9382 9.9109L17.0505 9.60426L17.1842 9.91383Z" fill="#059334" stroke="#FFD100" stroke-width="0.1"/>
</g>
</g>
<path d="M13.0286 12.967C13.0837 13.0898 13.4787 13.2511 13.9381 13.0438C14.2504 12.8978 14.4525 12.6905 14.6454 12.3218C14.7006 12.2297 14.7281 12.1145 14.5995 12.0453C14.4984 11.9839 14.3331 11.9148 14.2596 11.8533C14.2229 11.8226 14.1861 11.7996 14.1585 11.7765C14.1769 11.7919 14.1953 11.8073 14.2137 11.8303C14.3974 12.0146 14.2045 12.2834 14.0024 12.4447C13.8554 12.5599 13.589 12.8441 13.2031 12.5753C13.1205 12.5138 12.9275 12.7673 13.0286 12.967L13.0286 12.967Z" fill="#FFD100"/>
<path d="M18.614 12.967C18.5497 13.0898 18.1547 13.2511 17.7045 13.0438C17.3922 12.8978 17.1901 12.6905 16.988 12.3218C16.9421 12.2297 16.9145 12.1145 17.0431 12.0453C17.1442 11.9839 17.3095 11.9148 17.383 11.8533C17.4198 11.8226 17.4473 11.7996 17.4841 11.7765C17.4657 11.7919 17.4473 11.8073 17.4289 11.8303C17.2452 12.0146 17.4381 12.2834 17.6311 12.4447C17.778 12.5599 18.0536 12.8441 18.4395 12.5753C18.5222 12.5138 18.7059 12.7673 18.614 12.967L18.614 12.967Z" fill="#FFD100"/>
<path d="M15.8213 13.6274C16.5563 13.6274 17.6862 13.351 18.2925 12.3833C18.3936 12.222 18.2925 12.1375 18.1731 12.0838C18.0445 12.0377 17.8883 11.9302 17.8056 11.861C17.9526 11.9839 17.9251 12.0684 17.824 12.2066C17.3555 12.8594 16.7124 13.1897 15.8213 13.1897C14.9302 13.1897 14.2872 12.8594 13.8187 12.2066C13.7176 12.0684 13.69 11.9839 13.8278 11.861C13.7544 11.9302 13.589 12.0377 13.4604 12.0838C13.341 12.1375 13.2399 12.222 13.341 12.3833C13.9473 13.351 15.0864 13.6274 15.8213 13.6274H15.8213Z" fill="#FFD100"/>
<path d="M14.1218 12.3295C14.1034 12.2527 13.984 12.2834 13.9472 12.3756C13.9013 12.3218 13.8554 12.2681 13.8186 12.2066C13.7084 12.0684 13.69 11.9762 13.8462 11.8457C13.9197 11.7842 14.0667 11.7151 14.1677 11.7919C14.379 11.9378 14.2688 12.1759 14.1218 12.3295L14.1218 12.3295Z" fill="#F50100"/>
<path d="M17.5117 12.3295C17.53 12.2527 17.6587 12.2834 17.6954 12.3756C17.7413 12.3218 17.7873 12.2681 17.824 12.2066C17.9343 12.0684 17.9526 11.9762 17.7873 11.8457C17.723 11.7842 17.576 11.7151 17.4657 11.7919C17.2636 11.9378 17.3647 12.1759 17.5117 12.3295L17.5117 12.3295Z" fill="#F50100"/>
<path d="M14.8809 5.92321C14.8087 5.82053 14.6127 5.7749 14.5302 5.86617C14.4993 5.88898 14.458 5.88898 14.4271 5.90039C14.3755 5.90039 14.3097 5.92912 14.3303 6.0432C14.3858 6.0432 14.3858 6.07152 14.4168 6.07152C14.4374 6.06011 14.491 6.26938 14.5942 6.25797C14.7076 6.25797 14.8087 6.31109 14.8293 6.33391C14.8602 6.36813 14.9015 6.4594 14.8499 6.50503C14.7777 6.57348 14.7262 6.7332 14.8499 6.85869C14.984 6.97277 15.3243 7.1439 15.7059 6.81306C16.0772 6.49362 16.6547 6.67616 16.6959 6.79024C16.7475 6.90432 16.7681 6.97277 16.7784 7.02982C16.7887 7.07545 17.0672 7.1439 17.1084 7.17813C17.16 7.21235 17.2322 7.20094 17.2116 7.09827C17.1703 6.77883 16.995 6.7332 16.9744 6.58489C17.0775 6.5963 17.1497 6.5963 17.191 6.55067C17.2219 6.50503 17.2631 6.42517 17.3044 6.40236C17.3353 6.37954 17.3353 6.35672 17.2941 6.36813C17.2425 6.37954 17.2116 6.40236 17.1188 6.39095C16.8992 6.36455 16.9535 5.49915 16.2273 5.33081C15.7786 5.22678 15.2191 5.94017 15.0656 6.01079C15.0623 6.01233 15.0591 6.01356 15.0562 6.01447C14.984 6.01447 14.9221 5.98025 14.8809 5.92321Z" fill="#059334"/>
</g>
<defs>
<clipPath id="clip0_270_60870">
<rect width="20" height="15" fill="white"/>
</clipPath>
<clipPath id="clip1_270_60870">
<rect width="11" height="9" fill="white"/>
</clipPath>
<clipPath id="clip2_270_60870">
<rect width="5" height="7" fill="white" transform="translate(13.4264 6.94547)"/>
</clipPath>
</defs>
</svg>
