<svg width="20" height="15" viewBox="0 0 20 15" fill="none" xmlns="http://www.w3.org/2000/svg">
<g clip-path="url(#clip0_270_60865)">
<rect width="20" height="15" fill="white"/>
<path fill-rule="evenodd" clip-rule="evenodd" d="M0 0V15H20V0H0Z" fill="#E31D1C"/>
<mask id="mask0_270_60865" style="mask-type:luminance" maskUnits="userSpaceOnUse" x="0" y="0" width="20" height="15">
<path fill-rule="evenodd" clip-rule="evenodd" d="M0 0V15H20V0H0Z" fill="white"/>
</mask>
<g mask="url(#mask0_270_60865)">
<path fill-rule="evenodd" clip-rule="evenodd" d="M0 0V7.5H20V0H0Z" fill="#2E42A5"/>
<path fill-rule="evenodd" clip-rule="evenodd" d="M2.99902 6.90823C2.99902 6.90823 3.75319 7.37767 5.5008 7.37767C7.2484 7.37767 8.17603 6.90823 8.17603 6.90823C8.17603 6.90823 6.8055 6.11153 5.58008 6.11153C4.35465 6.11153 2.99902 6.90823 2.99902 6.90823Z" fill="black"/>
<path d="M6.70644 1.9593C7.14875 1.84875 7.70055 1.78319 8.13905 2.16438C8.56517 2.53518 8.63075 3.10107 8.61366 3.51399C8.60482 3.72736 8.57346 3.91907 8.54433 4.05696C8.52969 4.12619 8.51598 4.18317 8.50526 4.22297C8.4999 4.24288 8.49488 4.25866 8.49159 4.26985C8.48995 4.27544 8.48867 4.28028 8.48769 4.28352C8.48723 4.285 8.487 4.28648 8.48671 4.28743L8.48573 4.2884L8.43105 4.46418H2.90077L2.82851 4.33918L3.04433 4.21418L2.82753 4.33918L2.8246 4.33332C2.82271 4.32998 2.81995 4.32539 2.81679 4.31965C2.81038 4.308 2.80109 4.29154 2.79042 4.27082C2.7691 4.22942 2.74044 4.17001 2.70937 4.09797C2.64779 3.95518 2.57417 3.75475 2.53358 3.53157C2.49323 3.30954 2.48297 3.04911 2.5619 2.79719C2.6432 2.53795 2.81542 2.30233 3.11073 2.13508C3.66627 1.82053 4.16899 1.86503 4.59413 1.97688C4.79522 2.0298 5.00114 2.10442 5.16054 2.15461C5.33266 2.2088 5.4694 2.24153 5.58827 2.24153C5.70817 2.24151 5.8641 2.20565 6.06483 2.1468C6.25187 2.09196 6.48464 2.01474 6.70644 1.9593Z" fill="#FFD83D" stroke="black" stroke-width="0.5"/>
<path d="M5.60912 3.66724C6.67494 3.66724 7.47347 3.80406 8.00951 3.9436C8.27743 4.01335 8.47975 4.08405 8.61693 4.13794C8.68543 4.16486 8.73804 4.18774 8.77415 4.20435C8.79208 4.21259 8.80621 4.21897 8.81615 4.22388C8.82113 4.22634 8.82489 4.22919 8.82787 4.23071C8.82925 4.23142 8.83083 4.2312 8.83177 4.23169L8.83275 4.23267L8.83372 4.23364L9.02806 4.33618L8.95189 4.54224L8.21068 6.52271L8.12865 6.74341L7.90306 6.67407V6.6731H7.90111C7.8993 6.67255 7.89619 6.67132 7.89232 6.67017C7.88441 6.66781 7.87218 6.66402 7.85619 6.65942C7.82407 6.6502 7.77595 6.63746 7.71458 6.62134C7.59187 6.5891 7.4154 6.54544 7.20189 6.5022C6.77314 6.41539 6.20179 6.33037 5.62181 6.33032C5.04148 6.33032 4.45871 6.4152 4.0183 6.5022C3.79888 6.54554 3.61611 6.58899 3.489 6.62134C3.42558 6.63748 3.37588 6.65115 3.34251 6.6604C3.32608 6.66496 3.31367 6.66877 3.3054 6.67114C3.30126 6.67234 3.29758 6.67351 3.29564 6.67407H3.29369L3.0681 6.74146L2.98705 6.51978L2.26634 4.54028L2.19212 4.33521L2.38548 4.23364V4.23267L2.38744 4.23169C2.38838 4.2312 2.38998 4.23141 2.39134 4.23071C2.39432 4.22919 2.39807 4.22634 2.40306 4.22388C2.41303 4.21896 2.42713 4.21259 2.44505 4.20435C2.4812 4.18773 2.5337 4.16488 2.60228 4.13794C2.73946 4.08405 2.94181 4.01335 3.2097 3.9436C3.74567 3.80409 4.54362 3.66727 5.60912 3.66724Z" fill="#FFD83D" stroke="black" stroke-width="0.5"/>
<path d="M5.54596 1.20283C5.96645 1.20283 6.21686 1.60774 6.21686 1.98115C6.21685 2.35456 5.96644 2.75947 5.54596 2.75947C5.12563 2.75931 4.87605 2.35448 4.87604 1.98115C4.87604 1.60781 5.12562 1.20299 5.54596 1.20283Z" fill="#FFD83D" stroke="black" stroke-width="0.5"/>
<mask id="path-8-outside-1_270_60865" maskUnits="userSpaceOnUse" x="4.07352" y="-1" width="3" height="4" fill="black">
<rect fill="white" x="4.07352" y="-1" width="3" height="4"/>
<path fill-rule="evenodd" clip-rule="evenodd" d="M5.70377 0H5.38864L5.42921 0.576701L5.07352 0.528302V0.924528L5.43467 0.874782L5.38864 1.78302H5.70377L5.65712 0.873254L6.01889 0.924528V0.528302L5.66367 0.579291L5.70377 0Z"/>
</mask>
<path fill-rule="evenodd" clip-rule="evenodd" d="M5.70377 0H5.38864L5.42921 0.576701L5.07352 0.528302V0.924528L5.43467 0.874782L5.38864 1.78302H5.70377L5.65712 0.873254L6.01889 0.924528V0.528302L5.66367 0.579291L5.70377 0Z" fill="#FFD83D"/>
<path d="M5.38864 0V-0.5H4.85224L4.88988 0.0350833L5.38864 0ZM5.70377 0L6.20258 0.0345249L6.23957 -0.5H5.70377V0ZM5.42921 0.576701L5.36179 1.07214L5.97112 1.15505L5.92798 0.541618L5.42921 0.576701ZM5.07352 0.528302L5.14093 0.0328674L4.57352 -0.0443408V0.528302H5.07352ZM5.07352 0.924528H4.57352V1.49812L5.14174 1.41985L5.07352 0.924528ZM5.43467 0.874782L5.93403 0.900089L5.96459 0.297069L5.36644 0.379459L5.43467 0.874782ZM5.38864 1.78302L4.88928 1.75771L4.86266 2.28302H5.38864V1.78302ZM5.70377 1.78302V2.28302H6.23007L6.20311 1.75741L5.70377 1.78302ZM5.65712 0.873254L5.72728 0.378201L5.12671 0.293084L5.15777 0.89886L5.65712 0.873254ZM6.01889 0.924528L5.94873 1.41958L6.51889 1.50039V0.924528H6.01889ZM6.01889 0.528302H6.51889V-0.048594L5.94785 0.0333747L6.01889 0.528302ZM5.66367 0.579291L5.16487 0.544766L5.12213 1.16215L5.73472 1.07422L5.66367 0.579291ZM5.38864 0.5H5.70377V-0.5H5.38864V0.5ZM5.92798 0.541618L5.88741 -0.0350833L4.88988 0.0350833L4.93044 0.611784L5.92798 0.541618ZM5.0061 1.02374L5.36179 1.07214L5.49662 0.0812664L5.14093 0.0328674L5.0061 1.02374ZM5.57352 0.924528V0.528302H4.57352V0.924528H5.57352ZM5.36644 0.379459L5.00529 0.429205L5.14174 1.41985L5.5029 1.37011L5.36644 0.379459ZM5.888 1.80833L5.93403 0.900089L4.93531 0.849475L4.88928 1.75771L5.888 1.80833ZM5.70377 1.28302H5.38864V2.28302H5.70377V1.28302ZM5.15777 0.89886L5.20443 1.80862L6.20311 1.75741L6.15646 0.847648L5.15777 0.89886ZM6.08906 0.429476L5.72728 0.378201L5.58695 1.36831L5.94873 1.41958L6.08906 0.429476ZM5.51889 0.528302V0.924528H6.51889V0.528302H5.51889ZM5.73472 1.07422L6.08994 1.02323L5.94785 0.0333747L5.59263 0.084364L5.73472 1.07422ZM5.20496 -0.0345249L5.16487 0.544766L6.16248 0.613816L6.20258 0.0345249L5.20496 -0.0345249Z" fill="black" mask="url(#path-8-outside-1_270_60865)"/>
</g>
</g>
<defs>
<clipPath id="clip0_270_60865">
<rect width="20" height="15" fill="white"/>
</clipPath>
</defs>
</svg>
