<svg width="20" height="15" viewBox="0 0 20 15" fill="none" xmlns="http://www.w3.org/2000/svg">
<g clip-path="url(#clip0_270_61004)">
<rect width="20" height="15" fill="white"/>
<path fill-rule="evenodd" clip-rule="evenodd" d="M0 0V15H20V0H0Z" fill="#3D58DB"/>
<mask id="mask0_270_61004" style="mask-type:luminance" maskUnits="userSpaceOnUse" x="0" y="0" width="20" height="15">
<path fill-rule="evenodd" clip-rule="evenodd" d="M0 0V15H20V0H0Z" fill="white"/>
</mask>
<g mask="url(#mask0_270_61004)">
<path fill-rule="evenodd" clip-rule="evenodd" d="M0 0V5H20V0H0Z" fill="#F7FCFF"/>
<path fill-rule="evenodd" clip-rule="evenodd" d="M0 10V15H20V10H0Z" fill="#E31D1C"/>
<path d="M10.0338 3.45648L10.0631 3.73578V3.73871C10.0633 3.74031 10.0638 3.74259 10.0641 3.74554C10.0648 3.75173 10.0658 3.76099 10.067 3.77289C10.0695 3.79671 10.0733 3.83165 10.0778 3.8764C10.0867 3.9661 10.0993 4.09549 10.1139 4.25433C10.143 4.57194 10.1798 5.00887 10.2116 5.48383C10.2743 6.42111 10.3195 7.54925 10.2301 8.19379C10.0528 9.47116 9.28503 11.5392 6.98891 12.5659L6.86391 12.6215L6.73695 12.5668C4.31975 11.5225 3.69489 9.2184 3.55824 8.19183C3.48823 7.66575 3.51489 6.53885 3.55531 5.5766C3.57582 5.08847 3.60029 4.6311 3.61977 4.29633C3.6295 4.12906 3.63815 3.99206 3.64418 3.89691C3.64719 3.84936 3.64936 3.81185 3.65102 3.78656C3.65182 3.77422 3.65254 3.76473 3.65297 3.75824C3.65319 3.75496 3.65383 3.75211 3.65395 3.75043V3.74847V3.7475L3.67348 3.45648H10.0338Z" fill="#E31D1C" stroke="white" stroke-width="0.625"/>
<mask id="mask1_270_61004" style="mask-type:luminance" maskUnits="userSpaceOnUse" x="3" y="3" width="8" height="10">
<path d="M10.0338 3.45648L10.0631 3.73578V3.73871C10.0633 3.74031 10.0638 3.74259 10.0641 3.74554C10.0648 3.75173 10.0658 3.76099 10.067 3.77289C10.0695 3.79671 10.0733 3.83165 10.0778 3.8764C10.0867 3.9661 10.0993 4.09549 10.1139 4.25433C10.143 4.57194 10.1798 5.00887 10.2116 5.48383C10.2743 6.42111 10.3195 7.54925 10.2301 8.19379C10.0528 9.47116 9.28503 11.5392 6.98891 12.5659L6.86391 12.6215L6.73695 12.5668C4.31975 11.5225 3.69489 9.2184 3.55824 8.19183C3.48823 7.66575 3.51489 6.53885 3.55531 5.5766C3.57582 5.08847 3.60029 4.6311 3.61977 4.29633C3.6295 4.12906 3.63815 3.99206 3.64418 3.89691C3.64719 3.84936 3.64936 3.81185 3.65102 3.78656C3.65182 3.77422 3.65254 3.76473 3.65297 3.75824C3.65319 3.75496 3.65383 3.75211 3.65395 3.75043V3.74847V3.7475L3.67348 3.45648H10.0338Z" fill="white" stroke="white" stroke-width="0.625"/>
</mask>
<g mask="url(#mask1_270_61004)">
<path fill-rule="evenodd" clip-rule="evenodd" d="M6.41068 4.11859C6.41068 4.11859 6.53974 4.31523 6.59751 4.61591C6.65529 4.91658 6.66525 5.44341 6.66525 5.44341L5.44095 5.29267V6.22097L6.6926 6.06157L6.67226 6.94266C6.67226 6.94266 6.29781 6.98147 5.9907 6.94266C5.68358 6.90384 5.07857 6.74122 5.07857 6.74122V7.80396C5.07857 7.80396 5.69325 7.6073 5.9907 7.56218C6.28814 7.51705 6.67226 7.56218 6.67226 7.56218V8.86737H7.1804V7.56218C7.1804 7.56218 7.73588 7.51389 8.06724 7.56617C8.3986 7.61845 8.71291 7.80396 8.71291 7.80396V6.74122C8.71291 6.74122 8.39448 6.89987 8.09413 6.93934C7.79379 6.97882 7.1804 6.94266 7.1804 6.94266L7.20075 6.06157C7.20075 6.06157 7.61652 6.01852 7.84978 6.05019C8.08304 6.08185 8.37499 6.22097 8.37499 6.22097V5.29267C8.37499 5.29267 8.09043 5.44751 7.86654 5.47559C7.64265 5.50368 7.17339 5.44341 7.17339 5.44341C7.17339 5.44341 7.18171 4.89974 7.22986 4.63501C7.278 4.37029 7.41432 4.11859 7.41432 4.11859H6.41068Z" fill="#F7FCFF"/>
<path fill-rule="evenodd" clip-rule="evenodd" d="M4.31084 10.1533C4.31084 10.1533 4.58552 9.5638 5.03248 9.4517C5.47944 9.3396 5.94811 9.80252 5.94811 9.80252C5.94811 9.80252 6.2343 8.86725 6.93187 8.86725C7.62943 8.86725 7.87425 9.80252 7.87425 9.80252C7.87425 9.80252 8.17186 9.4517 8.59985 9.4517C9.02784 9.4517 9.42436 10.1533 9.42436 10.1533C9.42436 10.1533 8.14598 12.4742 6.8676 12.4742C5.58922 12.4742 4.31084 10.1533 4.31084 10.1533Z" fill="#2E42A5"/>
</g>
</g>
</g>
<defs>
<clipPath id="clip0_270_61004">
<rect width="20" height="15" fill="white"/>
</clipPath>
</defs>
</svg>
