<svg width="20" height="15" viewBox="0 0 20 15" fill="none" xmlns="http://www.w3.org/2000/svg">
<g clip-path="url(#clip0_270_60805)">
<rect width="20" height="15" fill="white"/>
<path fill-rule="evenodd" clip-rule="evenodd" d="M0 0V15H20V0H0Z" fill="#F7FCFF"/>
<mask id="mask0_270_60805" style="mask-type:luminance" maskUnits="userSpaceOnUse" x="0" y="0" width="20" height="15">
<path fill-rule="evenodd" clip-rule="evenodd" d="M0 0V15H20V0H0Z" fill="white"/>
</mask>
<g mask="url(#mask0_270_60805)">
<path fill-rule="evenodd" clip-rule="evenodd" d="M0 0V5H20V0H0Z" fill="#3D58DB"/>
<path fill-rule="evenodd" clip-rule="evenodd" d="M0 10V15H20V10H0Z" fill="#3D58DB"/>
<path d="M9.86499 5.13525C11.1219 5.13539 12.1404 6.15464 12.1404 7.41162C12.1402 8.66849 11.1219 9.68688 9.86499 9.68701C8.60801 9.68701 7.58876 8.66857 7.58862 7.41162C7.58862 6.15456 8.60792 5.13525 9.86499 5.13525Z" stroke="#E8AA00" stroke-width="0.625"/>
<path fill-rule="evenodd" clip-rule="evenodd" d="M8.63169 6.03894C8.63169 6.03894 8.03635 7.01873 8.03635 7.69136C8.03635 8.36398 8.74896 9.20942 9.87013 9.20942C10.9638 9.20942 11.7498 8.55615 11.7736 7.69136C11.7974 6.82656 11.1853 6.21093 11.1853 6.21093C11.1853 6.21093 11.5317 7.45599 11.3585 7.96051C11.1853 8.46503 10.6246 9.07545 9.87013 8.99774C9.11565 8.92002 8.39964 7.99137 8.39964 7.69136C8.39964 7.39134 8.63169 6.03894 8.63169 6.03894Z" fill="#1E601B"/>
<path d="M8.85031 7.70524H10.8549" stroke="#188396" stroke-width="0.625"/>
<path d="M9.0369 7.37877H10.7616" stroke="#E8AA00" stroke-width="0.625"/>
<path d="M10.6555 7.7569H9.12039L9.89481 6.47076L10.6555 7.7569Z" stroke="#E8AA00" stroke-width="0.625"/>
</g>
</g>
<defs>
<clipPath id="clip0_270_60805">
<rect width="20" height="15" fill="white"/>
</clipPath>
</defs>
</svg>
