<svg width="20" height="15" viewBox="0 0 20 15" fill="none" xmlns="http://www.w3.org/2000/svg">
<g clip-path="url(#clip0_270_60872)">
<rect width="20" height="15" fill="white"/>
<path fill-rule="evenodd" clip-rule="evenodd" d="M0 0V15H20V0H0Z" fill="#E31D1C"/>
<mask id="mask0_270_60872" style="mask-type:luminance" maskUnits="userSpaceOnUse" x="0" y="0" width="20" height="15">
<path fill-rule="evenodd" clip-rule="evenodd" d="M0 0V15H20V0H0Z" fill="white"/>
</mask>
<g mask="url(#mask0_270_60872)">
<path fill-rule="evenodd" clip-rule="evenodd" d="M0 7.5V15H20V7.5H0Z" fill="#2E42A5"/>
</g>
<path fill-rule="evenodd" clip-rule="evenodd" d="M0 -1.25V16.25L12.5 7.5L0 -1.25Z" fill="#F7FCFF"/>
<mask id="mask1_270_60872" style="mask-type:luminance" maskUnits="userSpaceOnUse" x="0" y="-2" width="13" height="19">
<path fill-rule="evenodd" clip-rule="evenodd" d="M0 -1.25V16.25L12.5 7.5L0 -1.25Z" fill="white"/>
</mask>
<g mask="url(#mask1_270_60872)">
<path fill-rule="evenodd" clip-rule="evenodd" d="M5.07866 5.74301C5.97661 5.74301 6.70454 5.29686 6.70454 4.7465C6.70454 4.19615 5.97661 3.75 5.07866 3.75C4.18072 3.75 3.45279 4.19615 3.45279 4.7465C3.45279 5.29686 4.18072 5.74301 5.07866 5.74301Z" fill="#FBCD17"/>
<path fill-rule="evenodd" clip-rule="evenodd" d="M5.2209 3.99084C5.08817 3.99084 4.99386 4.07635 4.99386 4.20506L4.99398 4.21926C4.98685 4.24071 4.98285 4.26461 4.98213 4.29137C4.98028 4.35984 5.00578 4.41696 5.0593 4.46935C5.06259 4.48447 5.0643 4.497 5.06382 4.50411C5.06057 4.49294 5.04765 4.48358 5.02305 4.46575C4.98808 4.44039 4.9295 4.39793 4.84154 4.30882C4.71484 4.18049 4.61923 4.13026 4.50038 4.15022C4.46434 4.15627 4.42907 4.16897 4.38672 4.18593C4.31921 4.21024 4.25706 4.21588 4.14231 4.19398C3.82343 4.13311 3.47367 4.19283 3.09503 4.36829L3.22642 4.65183C3.54957 4.50208 3.83468 4.4534 4.08371 4.50094C4.25479 4.53359 4.37358 4.5228 4.4926 4.47994C4.54389 4.46065 4.54837 4.45904 4.55213 4.4584C4.54836 4.45904 4.55078 4.46136 4.56663 4.47659C4.57731 4.48685 4.59408 4.50297 4.61915 4.52837C4.65487 4.56455 4.69221 4.5973 4.73034 4.62709C4.65704 4.64679 4.66084 4.66031 4.67429 4.70828C4.67977 4.72783 4.68686 4.7531 4.69099 4.78683C4.7001 4.86132 4.68496 4.89973 4.69802 4.91812C4.71259 4.93865 4.76226 4.93425 4.91986 4.92723C4.96228 4.92534 5.01966 4.92096 5.08586 4.91469C5.21568 4.90242 5.36262 4.88452 5.4529 4.86972C5.5406 4.85534 5.56391 4.8501 5.60069 4.82333C5.61341 4.80773 5.6243 4.79439 5.63332 4.7825C5.93321 4.73844 6.19987 4.70714 6.43717 4.68555C6.52225 4.6778 6.59063 4.67249 6.65683 4.66763C6.65815 4.66762 6.65924 4.66761 6.66033 4.66756C6.66574 4.66733 6.67111 4.66621 6.70313 4.65951C6.71995 4.65236 6.7269 4.64941 6.72926 4.64842L6.72923 4.64849C6.72982 4.64822 6.73028 4.64801 6.73028 4.648C6.73027 4.648 6.72999 4.64811 6.72926 4.64842L6.80585 4.46699L6.72672 4.3713C6.67372 4.35464 6.67371 4.35464 6.66705 4.35457L6.66704 4.35457C6.65732 4.354 6.65732 4.354 6.65176 4.35391C6.62668 4.35376 6.62668 4.35376 6.58009 4.35381C6.52818 4.35381 6.48718 4.34942 6.42794 4.33889L6.37285 4.32876C6.12922 4.28407 5.90325 4.28407 5.42401 4.35552L5.39723 4.33506C5.47441 4.32164 5.56841 4.31254 5.66774 4.30724C5.72779 4.30445 5.72779 4.30445 5.76132 4.30356L5.77599 4.30321L5.77415 3.99087L5.75045 3.99084H5.2209ZM4.96204 4.89555L4.99192 4.88934L5.02136 4.88306C5.01596 4.8842 5.00999 4.88545 5.00338 4.88683C4.99166 4.88927 4.97797 4.89213 4.96204 4.89555Z" fill="#DA610A"/>
<path d="M5.05377 5.36255C5.67441 5.26079 6.08358 5.27336 6.32037 5.35278C6.59357 5.44439 6.89535 5.41703 7.21295 5.30981C7.11207 5.759 7.05964 6.18333 7.05963 6.58228C7.05963 7.03655 7.14786 7.40387 7.2276 7.72583C7.30853 8.0526 7.37604 8.32031 7.37604 8.62817C7.37595 8.89704 7.28687 9.03793 7.16217 9.12622C7.01774 9.22847 6.77714 9.29416 6.41998 9.29419C5.91633 9.29419 5.44466 9.42926 5.0108 9.69458L5.00397 9.6897L4.99615 9.69458C4.56247 9.42944 4.09137 9.29424 3.58795 9.29419C3.23066 9.29419 2.98925 9.2285 2.84479 9.12622C2.72023 9.03792 2.63101 8.89684 2.63092 8.62817C2.63092 8.32027 2.69939 8.05266 2.78033 7.72583C2.86007 7.40387 2.9483 7.03655 2.9483 6.58228C2.94829 6.18331 2.8949 5.75904 2.79401 5.30981C3.1116 5.41708 3.41338 5.44427 3.68658 5.35278C3.92337 5.27336 4.33255 5.2608 4.95319 5.36255L5.00397 5.37134L5.05377 5.36255Z" fill="#56C6F5" stroke="#E31D1C" stroke-width="0.625"/>
<path fill-rule="evenodd" clip-rule="evenodd" d="M5.4905 6.39012L5.00836 5.96155L4.52621 6.39012H4.66907V6.63719L3.91907 7.1044V8.24726H3.77621V8.46155H3.91907H6.09764H6.27621V8.24726H6.09764V7.1044L5.31193 6.61494V6.39012H5.4905Z" fill="#F7FCFF"/>
<path d="M4.96991 10.6378C5.63306 10.6378 6.08959 10.5654 6.32468 10.442C6.38631 10.3372 6.4944 10.278 6.60941 10.2823C7.12594 10.3014 7.52599 10.0838 7.84048 9.60551C8.18029 9.08874 8.24857 8.3547 8.02709 7.39121L8.58935 7.26196C8.84311 8.36592 8.76024 9.25682 8.32253 9.92248C7.9303 10.519 7.3955 10.8376 6.74284 10.8592C6.40949 11.106 5.82532 11.2147 4.96991 11.2147C4.14238 11.2147 3.52881 11.054 3.13528 10.7126C2.24161 10.5015 1.67369 10.145 1.45039 9.6167C1.21235 9.05351 1.21235 8.27165 1.43439 7.26448L1.99779 7.38869C1.79911 8.28985 1.79911 8.95987 1.98179 9.3921C2.10927 9.69371 2.47968 9.93985 3.1072 10.1105L3.6902 10.2352L3.66222 10.3824C3.94663 10.5486 4.38131 10.6378 4.96991 10.6378Z" fill="#FBCD17"/>
<path d="M2.94623 5.51495L3.26582 5.64353L3.10603 5.97574L3.55301 5.74535L3.51829 5.91592L3.42246 6.3867L3.60561 5.85061V6.32415L3.71751 5.85061L4.04982 5.95083L3.71751 5.74535L4.04982 5.64353" stroke="#73BE4A" stroke-width="0.625" stroke-linecap="round" stroke-linejoin="round"/>
<path fill-rule="evenodd" clip-rule="evenodd" d="M3.55551 6.21069C3.7281 6.21069 3.86801 6.07078 3.86801 5.89819C3.86801 5.7256 3.7281 5.58569 3.55551 5.58569C3.38292 5.58569 3.24301 5.7256 3.24301 5.89819C3.24301 6.07078 3.38292 6.21069 3.55551 6.21069Z" fill="#FBCD17"/>
<path fill-rule="evenodd" clip-rule="evenodd" d="M6.65065 6.17083C6.64553 5.96065 6.62218 5.48077 6.51555 5.48077C6.40829 5.48077 6.39197 5.96628 6.38991 6.17449C6.20526 6.23484 6.06625 6.39373 6.06625 6.39373H6.98597C6.98597 6.39373 6.84108 6.22812 6.65065 6.17083Z" fill="#F7FCFF"/>
</g>
</g>
<defs>
<clipPath id="clip0_270_60872">
<rect width="20" height="15" fill="white"/>
</clipPath>
</defs>
</svg>
