<svg width="24" height="24" viewBox="0 0 24 24" fill="none" xmlns="http://www.w3.org/2000/svg">
<path d="M6.99995 16C6.01497 16.0011 5.06421 15.6387 4.32982 14.9823C3.59544 14.3259 3.12907 13.4216 3.02006 12.4427C2.91106 11.4637 3.16708 10.479 3.73909 9.67711C4.31109 8.87523 5.15885 8.3126 6.11995 8.097C5.84187 6.80009 6.09038 5.44583 6.8108 4.33215C7.53122 3.21846 8.66454 2.43658 9.96145 2.1585C11.2584 1.88042 12.6126 2.12892 13.7263 2.84934C14.84 3.56976 15.6219 4.70309 15.9 6H16C17.2399 5.99875 18.4361 6.45828 19.3563 7.28937C20.2765 8.12046 20.8551 9.26383 20.9797 10.4975C21.1043 11.7312 20.766 12.9671 20.0306 13.9655C19.2952 14.9638 18.2151 15.6533 17 15.9M8.99995 19L12 22M12 22L15 19M12 22V10" stroke="black" stroke-width="2" stroke-linecap="round" stroke-linejoin="round"/>
</svg>
