<svg width="24" height="24" viewBox="0 0 24 24" fill="none" xmlns="http://www.w3.org/2000/svg">
<path d="M3.34255 7.77791C3.5687 7.23194 3.90017 6.73587 4.31804 6.318C4.7359 5.90013 5.23198 5.56866 5.77795 5.34251C6.32392 5.11636 6.90909 4.99996 7.50004 4.99996C8.09099 4.99996 8.67616 5.11636 9.22213 5.34251C9.7681 5.56866 10.2642 5.90013 10.682 6.318L12 7.636L13.318 6.318C14.162 5.47408 15.3066 4.99997 16.5 4.99997C17.6935 4.99997 18.8381 5.47408 19.682 6.318C20.526 7.16192 21.0001 8.30652 21.0001 9.5C21.0001 10.6935 20.526 11.8381 19.682 12.682L12 20.364L4.31804 12.682C3.90017 12.2641 3.5687 11.7681 3.34255 11.2221C3.1164 10.6761 3 10.091 3 9.5C3 8.90905 3.1164 8.32388 3.34255 7.77791Z" stroke="black" stroke-width="2" stroke-linecap="round" stroke-linejoin="round"/>
</svg>
