<svg width="20" height="20" viewBox="0 0 20 20" fill="none" xmlns="http://www.w3.org/2000/svg">
<path d="M11 17C11.0001 17.1704 11.0437 17.3379 11.1267 17.4867C11.2098 17.6355 11.3294 17.7606 11.4744 17.8502C11.6194 17.9398 11.7848 17.9908 11.955 17.9985C12.1252 18.0061 12.2946 17.9702 12.447 17.894L16.447 15.894C16.6131 15.811 16.7528 15.6834 16.8504 15.5255C16.9481 15.3676 16.9999 15.1857 17 15V9.236C16.9999 9.06561 16.9563 8.89807 16.8733 8.74927C16.7902 8.60048 16.6706 8.47536 16.5256 8.38581C16.3806 8.29625 16.2152 8.24521 16.045 8.23755C15.8748 8.22988 15.7054 8.26584 15.553 8.342L11.553 10.342C11.3869 10.425 11.2472 10.5526 11.1496 10.7105C11.0519 10.8684 11.0001 11.0503 11 11.236V17ZM15.211 6.276C15.3769 6.19286 15.5164 6.06521 15.6138 5.90733C15.7113 5.74944 15.7629 5.56755 15.7629 5.382C15.7629 5.19645 15.7113 5.01456 15.6138 4.85667C15.5164 4.69879 15.3769 4.57114 15.211 4.488L10.447 2.106C10.3082 2.03664 10.1552 2.00053 10 2.00053C9.84484 2.00053 9.6918 2.03664 9.553 2.106L4.789 4.488C4.62312 4.57114 4.48364 4.69879 4.38617 4.85667C4.28869 5.01456 4.23707 5.19645 4.23707 5.382C4.23707 5.56755 4.28869 5.74944 4.38617 5.90733C4.48364 6.06521 4.62312 6.19286 4.789 6.276L9.553 8.658C9.6918 8.72736 9.84484 8.76347 10 8.76347C10.1552 8.76347 10.3082 8.72736 10.447 8.658L15.211 6.276ZM4.447 8.342C4.29458 8.26584 4.12522 8.22988 3.95501 8.23755C3.78479 8.24521 3.61935 8.29625 3.47439 8.38581C3.32944 8.47536 3.20977 8.60048 3.12674 8.74927C3.04372 8.89807 3.00009 9.06561 3 9.236V15C3.0001 15.1857 3.05188 15.3676 3.14955 15.5255C3.24722 15.6834 3.38692 15.811 3.553 15.894L7.553 17.894C7.70542 17.9702 7.87477 18.0061 8.04499 17.9985C8.21521 17.9908 8.38065 17.9398 8.52561 17.8502C8.67056 17.7606 8.79023 17.6355 8.87326 17.4867C8.95628 17.3379 8.99991 17.1704 9 17V11.236C8.9999 11.0503 8.94812 10.8684 8.85045 10.7105C8.75278 10.5526 8.61308 10.425 8.447 10.342L4.447 8.342Z" fill="black"/>
</svg>
