<svg width="24" height="24" viewBox="0 0 24 24" fill="none" xmlns="http://www.w3.org/2000/svg">
<path d="M14.121 14.121L19 19M12 12L19 4.99999M12 12L9.12102 14.879M12 12L9.12102 9.12099M9.12102 14.879C8.55837 14.3163 7.79524 14.0002 6.99952 14.0002C6.2038 14.0002 5.44068 14.3163 4.87802 14.879C4.31536 15.4416 3.99927 16.2048 3.99927 17.0005C3.99927 17.7962 4.31536 18.5593 4.87802 19.122C5.44068 19.6846 6.2038 20.0007 6.99952 20.0007C7.79524 20.0007 8.55837 19.6846 9.12102 19.122C9.68368 18.5593 9.99978 17.7962 9.99978 17.0005C9.99978 16.2048 9.68368 15.4416 9.12102 14.879ZM9.12102 9.12099C9.68368 8.55833 9.99978 7.79521 9.99978 6.99949C9.99978 6.20377 9.68368 5.44065 9.12102 4.87799C8.55837 4.31533 7.79524 3.99924 6.99952 3.99924C6.2038 3.99924 5.44068 4.31533 4.87802 4.87799C4.31536 5.44065 3.99927 6.20377 3.99927 6.99949C3.99927 7.79521 4.31536 8.55833 4.87802 9.12099C5.44068 9.68365 6.2038 9.99975 6.99952 9.99975C7.79524 9.99975 8.55837 9.68365 9.12102 9.12099Z" stroke="black" stroke-width="2" stroke-linecap="round" stroke-linejoin="round"/>
</svg>
