<svg width="20" height="20" viewBox="0 0 20 20" fill="none" xmlns="http://www.w3.org/2000/svg">
<path fill-rule="evenodd" clip-rule="evenodd" d="M15.707 15.707C15.5195 15.8945 15.2652 15.9998 15 15.9998C14.7349 15.9998 14.4806 15.8945 14.293 15.707L9.29303 10.707C9.10556 10.5195 9.00024 10.2652 9.00024 10C9.00024 9.73484 9.10556 9.48053 9.29303 9.293L14.293 4.29301C14.3853 4.19749 14.4956 4.12131 14.6176 4.0689C14.7396 4.01649 14.8709 3.98891 15.0036 3.98775C15.1364 3.9866 15.2681 4.0119 15.391 4.06218C15.5139 4.11246 15.6255 4.18672 15.7194 4.28061C15.8133 4.3745 15.8876 4.48615 15.9379 4.60905C15.9881 4.73195 16.0134 4.86363 16.0123 4.99641C16.0111 5.12919 15.9835 5.26041 15.9311 5.38241C15.8787 5.50441 15.8025 5.61476 15.707 5.707L11.414 10L15.707 14.293C15.8945 14.4805 15.9998 14.7348 15.9998 15C15.9998 15.2652 15.8945 15.5195 15.707 15.707ZM9.70703 15.707C9.5195 15.8945 9.26519 15.9998 9.00003 15.9998C8.73487 15.9998 8.48056 15.8945 8.29303 15.707L3.29303 10.707C3.10556 10.5195 3.00024 10.2652 3.00024 10C3.00024 9.73484 3.10556 9.48053 3.29303 9.293L8.29303 4.29301C8.48163 4.11085 8.73423 4.01005 8.99643 4.01233C9.25863 4.01461 9.50944 4.11978 9.69485 4.30519C9.88026 4.49059 9.98543 4.74141 9.9877 5.0036C9.98998 5.2658 9.88919 5.5184 9.70703 5.707L5.41403 10L9.70703 14.293C9.8945 14.4805 9.99982 14.7348 9.99982 15C9.99982 15.2652 9.8945 15.5195 9.70703 15.707Z" fill="black"/>
</svg>
