<svg width="20" height="20" viewBox="0 0 20 20" fill="none" xmlns="http://www.w3.org/2000/svg">
<path fill-rule="evenodd" clip-rule="evenodd" d="M10.293 15.707C10.1055 15.5195 10.0002 15.2652 10.0002 15C10.0002 14.7348 10.1055 14.4805 10.293 14.293L14.586 10L10.293 5.707C10.1974 5.61476 10.1213 5.50441 10.0689 5.38241C10.0164 5.26041 9.98886 5.12919 9.98771 4.99641C9.98655 4.86363 10.0119 4.73195 10.0621 4.60905C10.1124 4.48615 10.1867 4.3745 10.2806 4.28061C10.3745 4.18672 10.4861 4.11246 10.609 4.06218C10.7319 4.0119 10.8636 3.9866 10.9964 3.98775C11.1291 3.98891 11.2604 4.01649 11.3824 4.0689C11.5044 4.12131 11.6147 4.19749 11.707 4.29301L16.707 9.293C16.8944 9.48053 16.9997 9.73484 16.9997 10C16.9997 10.2652 16.8944 10.5195 16.707 10.707L11.707 15.707C11.5194 15.8945 11.2651 15.9998 11 15.9998C10.7348 15.9998 10.4805 15.8945 10.293 15.707Z" fill="black"/>
<path fill-rule="evenodd" clip-rule="evenodd" d="M4.29303 15.707C4.10556 15.5195 4.00024 15.2652 4.00024 15C4.00024 14.7348 4.10556 14.4805 4.29303 14.293L8.58603 10L4.29303 5.707C4.11087 5.51839 4.01008 5.26579 4.01236 5.00359C4.01463 4.7414 4.1198 4.49058 4.30521 4.30518C4.49062 4.11977 4.74143 4.0146 5.00363 4.01232C5.26583 4.01004 5.51843 4.11084 5.70703 4.293L10.707 9.293C10.8945 9.48052 10.9998 9.73483 10.9998 10C10.9998 10.2652 10.8945 10.5195 10.707 10.707L5.70703 15.707C5.5195 15.8945 5.26519 15.9998 5.00003 15.9998C4.73487 15.9998 4.48056 15.8945 4.29303 15.707Z" fill="black"/>
</svg>
