<svg width="20" height="20" viewBox="0 0 20 20" fill="none" xmlns="http://www.w3.org/2000/svg">
<path fill-rule="evenodd" clip-rule="evenodd" d="M9.504 1.132C9.65507 1.04571 9.82603 1.00032 10 1.00032C10.174 1.00032 10.3449 1.04571 10.496 1.132L12.246 2.132C12.3633 2.19538 12.4667 2.28158 12.5502 2.38551C12.6337 2.48945 12.6955 2.60903 12.7321 2.73722C12.7687 2.86542 12.7793 2.99963 12.7633 3.13198C12.7473 3.26432 12.7049 3.39213 12.6388 3.50788C12.5727 3.62363 12.484 3.72498 12.3782 3.80598C12.2723 3.88698 12.1513 3.946 12.0222 3.97955C11.8932 4.0131 11.7588 4.02052 11.6269 4.00136C11.4949 3.9822 11.3682 3.93686 11.254 3.868L10 3.152L8.74601 3.868C8.63185 3.93686 8.50509 3.9822 8.37316 4.00136C8.24123 4.02052 8.1068 4.0131 7.97778 3.97955C7.84875 3.946 7.72774 3.88698 7.62186 3.80598C7.51598 3.72498 7.42736 3.62363 7.36122 3.50788C7.29507 3.39213 7.25274 3.26432 7.23671 3.13198C7.22068 2.99963 7.23128 2.86542 7.26788 2.73722C7.30447 2.60903 7.36633 2.48945 7.44982 2.38551C7.5333 2.28158 7.63672 2.19538 7.754 2.132L9.504 1.132ZM5.618 4.504C5.74948 4.73422 5.78414 5.00723 5.71439 5.26301C5.64463 5.51879 5.47616 5.7364 5.246 5.868L5.016 6L5.246 6.132C5.36329 6.19538 5.46671 6.28158 5.55019 6.38551C5.63368 6.48945 5.69554 6.60903 5.73213 6.73722C5.76873 6.86542 5.77933 6.99963 5.7633 7.13198C5.74727 7.26432 5.70494 7.39213 5.63879 7.50788C5.57265 7.62363 5.48403 7.72498 5.37815 7.80598C5.27227 7.88698 5.15126 7.946 5.02223 7.97955C4.89321 8.0131 4.75878 8.02052 4.62685 8.00136C4.49492 7.9822 4.36816 7.93686 4.254 7.868L4 7.723V8C4 8.26521 3.89465 8.51957 3.70711 8.7071C3.51958 8.89464 3.26522 9 3 9C2.73479 9 2.48043 8.89464 2.2929 8.7071C2.10536 8.51957 2 8.26521 2 8V6C1.99945 5.82036 2.04748 5.64391 2.13902 5.48935C2.23057 5.33478 2.36221 5.20785 2.52 5.122L4.254 4.132C4.48423 4.00053 4.75724 3.96586 5.01302 4.03562C5.2688 4.10537 5.4864 4.27385 5.618 4.504ZM14.382 4.504C14.5136 4.27385 14.7312 4.10537 14.987 4.03562C15.2428 3.96586 15.5158 4.00053 15.746 4.132L17.479 5.122C17.6366 5.20822 17.7681 5.3352 17.8597 5.48967C17.9514 5.64413 17.9998 5.82039 18 6V8C18 8.26521 17.8946 8.51957 17.7071 8.7071C17.5196 8.89464 17.2652 9 17 9C16.7348 9 16.4804 8.89464 16.2929 8.7071C16.1054 8.51957 16 8.26521 16 8V7.723L15.746 7.868C15.6319 7.93686 15.5051 7.9822 15.3732 8.00136C15.2412 8.02052 15.1068 8.0131 14.9778 7.97955C14.8488 7.946 14.7277 7.88698 14.6219 7.80598C14.516 7.72498 14.4274 7.62363 14.3612 7.50788C14.2951 7.39213 14.2527 7.26432 14.2367 7.13198C14.2207 6.99963 14.2313 6.86542 14.2679 6.73722C14.3045 6.60903 14.3663 6.48945 14.4498 6.38551C14.5333 6.28158 14.6367 6.19538 14.754 6.132L14.984 6L14.754 5.868C14.5239 5.7364 14.3554 5.51879 14.2856 5.26301C14.2159 5.00723 14.2505 4.73422 14.382 4.504ZM7.382 8.504C7.51361 8.27385 7.73121 8.10537 7.98699 8.03562C8.24277 7.96586 8.51578 8.00053 8.74601 8.132L10 8.848L11.254 8.132C11.3682 8.06314 11.4949 8.01779 11.6269 7.99864C11.7588 7.97948 11.8932 7.9869 12.0222 8.02045C12.1513 8.054 12.2723 8.11301 12.3782 8.19401C12.484 8.27501 12.5727 8.37637 12.6388 8.49212C12.7049 8.60787 12.7473 8.73567 12.7633 8.86802C12.7793 9.00036 12.7687 9.13458 12.7321 9.26277C12.6955 9.39096 12.6337 9.51054 12.5502 9.61448C12.4667 9.71842 12.3633 9.80461 12.246 9.868L11 10.58V12C11 12.2652 10.8946 12.5196 10.7071 12.7071C10.5196 12.8946 10.2652 13 10 13C9.73479 13 9.48043 12.8946 9.2929 12.7071C9.10536 12.5196 9 12.2652 9 12V10.58L7.754 9.868C7.52385 9.7364 7.35538 9.51879 7.28562 9.26301C7.21587 9.00723 7.25053 8.73422 7.382 8.504ZM3 11C3.26522 11 3.51958 11.1054 3.70711 11.2929C3.89465 11.4804 4 11.7348 4 12V13.42L5.246 14.132C5.36329 14.1954 5.46671 14.2816 5.55019 14.3855C5.63368 14.4895 5.69554 14.609 5.73213 14.7372C5.76873 14.8654 5.77933 14.9996 5.7633 15.132C5.74727 15.2643 5.70494 15.3921 5.63879 15.5079C5.57265 15.6236 5.48403 15.725 5.37815 15.806C5.27227 15.887 5.15126 15.946 5.02223 15.9795C4.89321 16.0131 4.75878 16.0205 4.62685 16.0014C4.49492 15.9822 4.36816 15.9369 4.254 15.868L2.504 14.868C2.35095 14.7806 2.22372 14.6542 2.13522 14.5018C2.04671 14.3494 2.00006 14.1763 2 14V12C2 11.7348 2.10536 11.4804 2.2929 11.2929C2.48043 11.1054 2.73479 11 3 11ZM17 11C17.2652 11 17.5196 11.1054 17.7071 11.2929C17.8946 11.4804 18 11.7348 18 12V14C17.9999 14.1763 17.9533 14.3494 17.8648 14.5018C17.7763 14.6542 17.6491 14.7806 17.496 14.868L15.746 15.868C15.6319 15.9369 15.5051 15.9822 15.3732 16.0014C15.2412 16.0205 15.1068 16.0131 14.9778 15.9795C14.8488 15.946 14.7277 15.887 14.6219 15.806C14.516 15.725 14.4274 15.6236 14.3612 15.5079C14.2951 15.3921 14.2527 15.2643 14.2367 15.132C14.2207 14.9996 14.2313 14.8654 14.2679 14.7372C14.3045 14.609 14.3663 14.4895 14.4498 14.3855C14.5333 14.2816 14.6367 14.1954 14.754 14.132L16 13.42V12C16 11.7348 16.1054 11.4804 16.2929 11.2929C16.4804 11.1054 16.7348 11 17 11ZM7.382 16.504C7.51361 16.2738 7.73121 16.1054 7.98699 16.0356C8.24277 15.9659 8.51578 16.0005 8.74601 16.132L9 16.277V16C9 15.7348 9.10536 15.4804 9.2929 15.2929C9.48043 15.1054 9.73479 15 10 15C10.2652 15 10.5196 15.1054 10.7071 15.2929C10.8946 15.4804 11 15.7348 11 16V16.277L11.254 16.132C11.3682 16.0631 11.4949 16.0178 11.6269 15.9986C11.7588 15.9795 11.8932 15.9869 12.0222 16.0204C12.1513 16.054 12.2723 16.113 12.3782 16.194C12.484 16.275 12.5727 16.3764 12.6388 16.4921C12.7049 16.6079 12.7473 16.7357 12.7633 16.868C12.7793 17.0004 12.7687 17.1346 12.7321 17.2628C12.6955 17.391 12.6337 17.5105 12.5502 17.6145C12.4667 17.7184 12.3633 17.8046 12.246 17.868L10.511 18.86C10.3566 18.9524 10.18 19.0012 10 19.0012C9.82003 19.0012 9.64343 18.9524 9.48901 18.86L7.754 17.868C7.52385 17.7364 7.35538 17.5188 7.28562 17.263C7.21587 17.0072 7.25053 16.7342 7.382 16.504Z" fill="black"/>
</svg>
