<svg width="20" height="20" viewBox="0 0 20 20" fill="none" xmlns="http://www.w3.org/2000/svg">
<path d="M9.04897 2.92699C9.34897 2.00599 10.652 2.00599 10.951 2.92699L12.021 6.21899C12.0863 6.41948 12.2134 6.59417 12.384 6.71809C12.5547 6.84202 12.7601 6.90883 12.971 6.90899H16.433C17.402 6.90899 17.804 8.14899 17.021 8.71899L14.221 10.753C14.05 10.877 13.9227 11.052 13.8573 11.2528C13.7919 11.4537 13.7918 11.6701 13.857 11.871L14.927 15.163C15.227 16.084 14.172 16.851 13.387 16.281L10.587 14.247C10.4162 14.123 10.2105 14.0562 9.99947 14.0562C9.78842 14.0562 9.58277 14.123 9.41197 14.247L6.61197 16.281C5.82797 16.851 4.77397 16.084 5.07297 15.163L6.14297 11.871C6.20815 11.6701 6.20803 11.4537 6.14264 11.2528C6.07725 11.052 5.94994 10.877 5.77897 10.753L2.97997 8.71999C2.19697 8.14999 2.59997 6.90999 3.56797 6.90999H7.02897C7.24002 6.91004 7.44568 6.84332 7.6165 6.71938C7.78732 6.59544 7.91455 6.42064 7.97997 6.21999L9.04997 2.92799L9.04897 2.92699Z" fill="black"/>
</svg>
