<svg width="20" height="20" viewBox="0 0 20 20" fill="none" xmlns="http://www.w3.org/2000/svg">
<path fill-rule="evenodd" clip-rule="evenodd" d="M12 13C11.7348 13 11.4805 13.1054 11.2929 13.2929C11.1054 13.4804 11 13.7348 11 14C11 14.2652 11.1054 14.5196 11.2929 14.7071C11.4805 14.8947 11.7348 15 12 15H17C17.2653 15 17.5196 14.8947 17.7071 14.7071C17.8947 14.5196 18 14.2652 18 14V9.00001C18 8.73479 17.8947 8.48044 17.7071 8.2929C17.5196 8.10537 17.2653 8.00001 17 8.00001C16.7348 8.00001 16.4805 8.10537 16.2929 8.2929C16.1054 8.48044 16 8.73479 16 9.00001V11.586L11.707 7.29301C11.5195 7.10554 11.2652 7.00022 11 7.00022C10.7349 7.00022 10.4806 7.10554 10.293 7.29301L8.00004 9.58601L3.70704 5.29301C3.51844 5.11085 3.26584 5.01006 3.00364 5.01234C2.74144 5.01461 2.49063 5.11978 2.30522 5.30519C2.11981 5.4906 2.01465 5.74141 2.01237 6.00361C2.01009 6.26581 2.11088 6.51841 2.29304 6.70701L7.29304 11.707C7.48057 11.8945 7.73488 11.9998 8.00004 11.9998C8.26521 11.9998 8.51951 11.8945 8.70704 11.707L11 9.41401L14.586 13H12Z" fill="black"/>
</svg>
