<svg width="20" height="20" viewBox="0 0 20 20" fill="none" xmlns="http://www.w3.org/2000/svg">
<path fill-rule="evenodd" clip-rule="evenodd" d="M9.383 3.07599C9.56569 3.15173 9.72181 3.27994 9.83163 3.44441C9.94146 3.60888 10 3.80222 10 3.99999V16C9.99996 16.1977 9.94129 16.391 9.8314 16.5554C9.72152 16.7199 9.56535 16.848 9.38265 16.9237C9.19995 16.9993 8.99892 17.0191 8.80497 16.9806C8.61102 16.942 8.43285 16.8468 8.293 16.707L4.586 13H2C1.73478 13 1.48043 12.8946 1.29289 12.7071C1.10536 12.5196 1 12.2652 1 12V7.99999C1 7.73477 1.10536 7.48042 1.29289 7.29288C1.48043 7.10534 1.73478 6.99999 2 6.99999H4.586L8.293 3.29299C8.43285 3.15305 8.61105 3.05774 8.80508 3.01912C8.9991 2.98049 9.20023 3.00028 9.383 3.07599ZM14.657 2.92899C14.8445 2.74152 15.0988 2.6362 15.364 2.6362C15.6292 2.6362 15.8835 2.74152 16.071 2.92899C17.0008 3.85664 17.7382 4.95884 18.2409 6.1723C18.7435 7.38575 19.0015 8.68655 19 9.99999C19.0015 11.3134 18.7435 12.6142 18.2409 13.8277C17.7382 15.0411 17.0008 16.1433 16.071 17.071C15.8824 17.2531 15.6298 17.3539 15.3676 17.3517C15.1054 17.3494 14.8546 17.2442 14.6692 17.0588C14.4838 16.8734 14.3786 16.6226 14.3763 16.3604C14.374 16.0982 14.4748 15.8456 14.657 15.657C15.4011 14.915 15.9912 14.0333 16.3933 13.0624C16.7955 12.0916 17.0016 11.0508 17 9.99999C17 7.78999 16.106 5.79199 14.657 4.34299C14.4695 4.15546 14.3642 3.90115 14.3642 3.63599C14.3642 3.37082 14.4695 3.11651 14.657 2.92899ZM11.828 5.75699C11.9209 5.66401 12.0312 5.59025 12.1526 5.53993C12.274 5.4896 12.4041 5.4637 12.5355 5.4637C12.6669 5.4637 12.797 5.4896 12.9184 5.53993C13.0398 5.59025 13.1501 5.66401 13.243 5.75699C13.8009 6.31365 14.2433 6.97505 14.5448 7.7032C14.8463 8.43134 15.001 9.21188 15 9.99999C15.001 10.7881 14.8463 11.5686 14.5447 12.2967C14.2432 13.0249 13.8008 13.6863 13.243 14.243C13.0554 14.4306 12.8009 14.536 12.5355 14.536C12.2701 14.536 12.0156 14.4306 11.828 14.243C11.6404 14.0553 11.5349 13.8008 11.5349 13.5355C11.5349 13.2701 11.6404 13.0156 11.828 12.828C12.2002 12.4572 12.4953 12.0164 12.6965 11.531C12.8976 11.0457 13.0008 10.5254 13 9.99999C13.0008 9.4746 12.8977 8.95425 12.6965 8.46889C12.4954 7.98354 12.2002 7.54278 11.828 7.17199C11.735 7.07911 11.6613 6.96882 11.6109 6.84743C11.5606 6.72603 11.5347 6.5959 11.5347 6.46449C11.5347 6.33307 11.5606 6.20294 11.6109 6.08155C11.6613 5.96015 11.735 5.84986 11.828 5.75699Z" fill="black"/>
</svg>
